<svg width="18" height="14" viewBox="0 0 18 14" fill="none" xmlns="http://www.w3.org/2000/svg">
<path d="M12.9374 5.60089C13.0801 5.64846 12.8899 5.41062 13.0326 5.45819C13.3655 6.07657 13.7461 6.40955 13.8888 7.17063C13.8888 7.2182 13.9839 7.2182 14.0315 7.2182C14.3169 8.02686 14.8401 8.69281 15.2683 9.3112C15.3158 9.3112 15.2207 9.21606 15.1731 9.12092C15.411 9.12092 15.3158 9.35876 15.4585 9.4539C15.4585 9.97715 15.8391 10.0723 15.9818 10.4528C15.9818 10.548 16.0293 10.3577 16.0769 10.4053C16.4099 11.2615 17.1234 11.7847 17.3137 12.7361H16.838C16.7429 12.8312 17.1234 12.8788 16.9807 12.9264C16.838 12.9264 16.7429 12.9264 16.6477 12.8788C16.6002 13.0215 16.7429 13.0215 16.7429 13.1642C16.6002 13.1642 16.5526 13.0691 16.505 13.0215C16.4099 13.0691 16.4099 13.1642 16.4575 13.3069C16.3623 13.2118 16.3148 13.1642 16.2672 13.1642C16.2672 13.3069 16.3148 13.3545 16.3148 13.4496C15.2683 13.2118 14.8401 12.2128 14.1266 11.4042C14.0791 11.1188 13.8888 11.0712 13.7936 10.7382C12.0812 8.4074 10.4639 6.029 9.17955 3.03222C8.6563 3.69817 8.32333 4.45926 7.75251 5.03008C7.80008 5.22035 7.56224 5.22035 7.60981 5.41062C7.41954 5.41062 7.4671 5.64846 7.27683 5.64846L6.80115 6.45712C7.08656 6.17171 7.4671 5.98144 7.65738 5.55332C7.60981 5.93387 7.41954 6.31441 7.1817 6.55225L7.13413 6.74252L3.04328 13.1166C2.32976 13.402 1.85408 13.0215 1.28326 12.9264C1.28326 12.8788 1.28326 12.8312 1.2357 12.7837C0.997857 12.7837 0.617312 12.5458 0.42704 12.2604C0.331904 11.9274 0.0464964 11.8799 0.141632 11.4993C2.28219 7.88416 4.85086 4.74467 7.3244 1.41491L7.3244 1.22463C7.65738 1.03436 7.65738 0.65382 8.08549 0.558683C8.08549 0.511115 8.13306 0.36841 8.22819 0.273275C9.13198 0.13057 9.36982 0.796522 10.0358 1.08193C10.8444 1.03436 11.0823 1.89059 11.558 2.4614C11.8909 3.31763 12.319 4.07871 12.6044 5.07764C12.7472 5.12521 12.8423 5.36305 12.9374 5.60089Z" fill="#618CAC"/>
</svg>
