<svg width="3" height="48" viewBox="0 0 3 48" fill="none" xmlns="http://www.w3.org/2000/svg">
<path d="M0.891838 48C0.654491 48 0.49626 47.849 0.49626 47.7734C0.338029 47.5469 0.179796 47.2448 0.258911 46.9427C0.338027 46.7916 0.338025 46.7161 0.41714 46.6406C0.496255 46.1119 0.179793 45.5832 0.41714 44.979C0.496255 44.6769 0.179796 44.4504 0.258911 44.1483C0.338027 43.4685 0.100675 42.7133 0.179791 42.0336C0.179791 41.807 0.179791 41.4294 0.179791 41.1273C0.100675 40.9007 -0.0575533 40.5231 0.0215622 40.221C0.179793 39.9944 0.179796 39.7678 0.258911 39.4657C0.258911 39.0881 0.258911 38.7105 0.258911 38.3329C0.258911 37.5776 0.179793 36.8979 0.41714 36.1427C0.496255 35.8406 0.338031 35.4629 0.338031 35.1608C0.1798 34.3301 0.57537 33.5748 0.417139 32.6685C0.417139 32.442 0.417139 32.1399 0.417139 31.8378C0.496255 31.4601 0.496262 31.007 0.338031 30.5539C0.338031 30.3273 0.338024 30.1762 0.417139 29.9497C0.417139 29.7231 0.417146 29.421 0.338031 29.0434C0.338031 28.8168 0.417144 28.4392 0.49626 28.1371C0.575375 27.6084 0.417137 27.0797 0.575368 26.4755C0.654483 26.0224 0.417144 25.5692 0.496259 25.1161C0.65449 24.7385 0.496255 24.2098 0.417139 23.8322C0.338023 23.1524 0.575377 22.4727 0.338031 21.793C0.258915 21.5664 0.417144 21.2643 0.496259 20.9622C0.575375 20.5091 0.417136 20.056 0.575367 19.6028C0.575367 19.4518 0.417139 19.3762 0.417139 19.2252C0.496254 18.1678 0.654483 17.186 0.575367 16.2042C0.496252 15.9776 0.338023 15.8266 0.417139 15.6C0.496254 15.3734 0.496259 15.0713 0.496259 14.7692C0.417143 14.3161 0.338023 13.7874 0.417139 13.3343C0.496254 12.7301 0.179799 12.2014 0.33803 11.6727C0.496261 11.2951 0.575374 10.7664 0.496259 10.3133C0.417143 10.0112 0.417138 9.70909 0.417138 9.407C0.575369 9.02938 0.496259 8.65175 0.496259 8.27413C0.417143 7.89651 0.258915 7.44336 0.33803 7.06573C0.496261 6.38601 0.417138 5.70629 0.417138 5.02658C0.417138 4.87553 0.33803 4.8 0.33803 4.72447C0.417145 4.4979 0.496258 4.27133 0.496258 4.04475C0.338027 3.59161 0.654482 3.06294 0.575367 2.60979C0.496251 2.45875 0.496258 2.3077 0.496258 2.23217C0.654489 1.7035 0.338023 1.25035 0.417138 0.721683C0.496253 0.570633 0.575376 0.495102 0.733607 0.419579C0.812723 0.268528 0.81272 0.117481 0.891836 0.041954C1.2083 -0.0335694 1.60387 -0.0335656 1.84122 0.268532C2.15768 0.646152 2.15769 1.0993 1.92034 1.47693C1.92034 1.55245 1.92034 1.62797 1.92034 1.70349C1.92034 2.23216 2.15768 2.76084 2.15768 3.28951C2.15768 3.44056 1.92034 3.44056 1.92034 3.5916C1.92034 4.64894 1.7621 5.78181 1.99945 6.83916C1.99945 7.14126 2.07857 7.2923 1.92034 7.5944C1.92034 7.66993 1.99945 7.66993 1.99945 7.74545C1.99945 8.04755 2.07857 8.42518 1.92034 8.8028C1.92034 9.02937 1.92034 9.18042 1.92034 9.407C1.92034 9.78462 1.92034 10.3133 1.92034 10.6909C1.92034 11.6727 1.84122 12.6545 1.99945 13.6364C1.99945 13.7119 1.92034 13.7874 1.92034 13.8629C1.92034 14.0895 1.92034 14.2406 1.92034 14.4671C1.92034 15.2979 1.92034 15.9776 1.92034 16.8084C1.84122 17.1105 1.99946 17.4881 1.92034 17.7902C1.84123 17.9413 1.84122 18.0923 1.84122 18.1678C1.99945 18.3944 1.92034 18.772 1.92034 19.0741C1.84123 19.2252 1.84122 19.3762 1.84122 19.5273C1.99945 20.0559 1.92034 20.5091 1.92034 21.0378C1.92034 21.1133 1.84122 21.2643 1.84122 21.2643C1.99945 21.7175 1.92034 22.3217 1.92034 22.7748C1.84123 22.9259 1.84122 23.0014 1.84122 23.0769C1.92034 23.3035 1.92034 23.4545 1.92034 23.6811C1.76211 24.0587 1.68298 24.5119 1.7621 24.8895C1.84122 25.0406 1.84123 25.1161 1.92034 25.1916C1.99946 25.4182 1.84122 25.6448 1.7621 25.9469C1.68298 26.3245 1.84123 26.7776 1.92034 27.1553C1.99946 27.6839 1.84122 28.1371 1.84122 28.6657C1.84122 29.2699 1.7621 29.8741 1.99945 30.4028C1.84122 31.158 1.92034 31.9133 1.84122 32.6685C1.76211 33.3482 1.84122 34.028 1.84122 34.7077C1.76211 35.3119 1.68299 35.9161 1.7621 36.5203C1.84122 36.5958 1.76211 36.8224 1.68299 36.8224C1.60388 37.9552 1.84122 39.0881 1.68299 40.221C1.68299 40.4475 1.68299 40.5231 1.7621 40.7497C1.7621 40.9007 1.76211 41.0517 1.68299 41.2028C1.60388 42.0336 1.7621 42.7133 1.7621 43.5441C1.7621 43.8462 1.76211 44.2238 1.68299 44.6014C1.68299 44.6769 1.7621 44.6769 1.7621 44.7524C1.84122 45.0545 1.60387 45.2811 1.7621 45.5832C1.7621 45.5832 1.68299 45.6587 1.68299 45.7343C1.44565 46.8671 1.84122 47.7734 0.891838 48Z" fill="white"/>
</svg>
