<svg width="2" height="48" viewBox="0 0 2 48" fill="none" xmlns="http://www.w3.org/2000/svg">
<path d="M0.69632 48C0.511007 48 0.387465 47.849 0.387465 47.7734C0.263923 47.5469 0.140379 47.2448 0.20215 46.9427C0.263921 46.7916 0.263919 46.7161 0.32569 46.6406C0.387461 46.1119 0.140377 45.5832 0.32569 44.979C0.387461 44.6769 0.140379 44.4504 0.20215 44.1483C0.263921 43.4685 0.0786042 42.7133 0.140375 42.0336C0.140375 41.807 0.140375 41.4294 0.140375 41.1273C0.0786041 40.9007 -0.0449359 40.5231 0.016835 40.221C0.140377 39.9944 0.140379 39.7678 0.20215 39.4657C0.20215 39.0881 0.20215 38.7105 0.20215 38.3329C0.20215 37.5776 0.140377 36.8979 0.32569 36.1427C0.387461 35.8406 0.263924 35.4629 0.263924 35.1608C0.140382 34.3301 0.449231 33.5748 0.325689 32.6685C0.325689 32.442 0.325689 32.1399 0.325689 31.8378C0.38746 31.4601 0.387466 31.007 0.263924 30.5539C0.263924 30.3273 0.263918 30.1762 0.325689 29.9497C0.325689 29.7231 0.325695 29.421 0.263924 29.0434C0.263924 28.8168 0.325693 28.4392 0.387464 28.1371C0.449235 27.6084 0.325687 27.0797 0.449229 26.4755C0.511 26.0224 0.325693 25.5692 0.387464 25.1161C0.511006 24.7385 0.38746 24.2098 0.325689 23.8322C0.263918 23.1524 0.449237 22.4727 0.263924 21.793C0.202153 21.5664 0.325693 21.2643 0.387464 20.9622C0.449235 20.5091 0.325687 20.056 0.449229 19.6028C0.449229 19.4518 0.325689 19.3762 0.325689 19.2252C0.38746 18.1678 0.511 17.186 0.449229 16.2042C0.387458 15.9776 0.263918 15.8266 0.325689 15.6C0.38746 15.3734 0.387463 15.0713 0.387463 14.7692C0.325692 14.3161 0.263918 13.7874 0.325689 13.3343C0.38746 12.7301 0.140381 12.2014 0.263923 11.6727C0.387465 11.2951 0.449234 10.7664 0.387463 10.3133C0.325692 10.0112 0.325688 9.70909 0.325688 9.407C0.44923 9.02938 0.387463 8.65175 0.387463 8.27413C0.325692 7.89651 0.202152 7.44336 0.263923 7.06573C0.387465 6.38601 0.325688 5.70629 0.325688 5.02658C0.325688 4.87553 0.263923 4.8 0.263923 4.72447C0.325694 4.4979 0.387463 4.27133 0.387463 4.04475C0.263921 3.59161 0.510999 3.06294 0.449228 2.60979C0.387457 2.45875 0.387463 2.3077 0.387463 2.23217C0.511005 1.7035 0.263917 1.25035 0.325688 0.721683C0.387459 0.570633 0.449236 0.495102 0.572777 0.419579C0.634548 0.268528 0.634547 0.117481 0.696317 0.041954C0.943401 -0.0335694 1.25225 -0.0335656 1.43757 0.268532C1.68465 0.646152 1.68465 1.0993 1.49934 1.47693C1.49934 1.55245 1.49934 1.62797 1.49934 1.70349C1.49934 2.23216 1.68465 2.76084 1.68465 3.28951C1.68465 3.44056 1.49934 3.44056 1.49934 3.5916C1.49934 4.64894 1.37579 5.78181 1.56111 6.83916C1.56111 7.14126 1.62288 7.2923 1.49934 7.5944C1.49934 7.66993 1.56111 7.66993 1.56111 7.74545C1.56111 8.04755 1.62288 8.42518 1.49934 8.8028C1.49934 9.02937 1.49934 9.18042 1.49934 9.407C1.49934 9.78462 1.49934 10.3133 1.49934 10.6909C1.49934 11.6727 1.43757 12.6545 1.56111 13.6364C1.56111 13.7119 1.49934 13.7874 1.49934 13.8629C1.49934 14.0895 1.49934 14.2406 1.49934 14.4671C1.49934 15.2979 1.49934 15.9776 1.49934 16.8084C1.43757 17.1105 1.56111 17.4881 1.49934 17.7902C1.43757 17.9413 1.43757 18.0923 1.43757 18.1678C1.56111 18.3944 1.49934 18.772 1.49934 19.0741C1.43757 19.2252 1.43757 19.3762 1.43757 19.5273C1.56111 20.0559 1.49934 20.5091 1.49934 21.0378C1.49934 21.1133 1.43757 21.2643 1.43757 21.2643C1.56111 21.7175 1.49934 22.3217 1.49934 22.7748C1.43757 22.9259 1.43757 23.0014 1.43757 23.0769C1.49934 23.3035 1.49934 23.4545 1.49934 23.6811C1.3758 24.0587 1.31402 24.5119 1.37579 24.8895C1.43756 25.0406 1.43757 25.1161 1.49934 25.1916C1.56111 25.4182 1.43756 25.6448 1.37579 25.9469C1.31402 26.3245 1.43757 26.7776 1.49934 27.1553C1.56111 27.6839 1.43757 28.1371 1.43757 28.6657C1.43757 29.2699 1.3758 29.8741 1.56111 30.4028C1.43757 31.158 1.49934 31.9133 1.43757 32.6685C1.3758 33.3482 1.43757 34.028 1.43757 34.7077C1.3758 35.3119 1.31402 35.9161 1.37579 36.5203C1.43756 36.5958 1.3758 36.8224 1.31403 36.8224C1.25226 37.9552 1.43757 39.0881 1.31403 40.221C1.31403 40.4475 1.31402 40.5231 1.37579 40.7497C1.37579 40.9007 1.3758 41.0517 1.31403 41.2028C1.25226 42.0336 1.37579 42.7133 1.37579 43.5441C1.37579 43.8462 1.3758 44.2238 1.31403 44.6014C1.31403 44.6769 1.37579 44.6769 1.37579 44.7524C1.43757 45.0545 1.25225 45.2811 1.37579 45.5832C1.37579 45.5832 1.31403 45.6587 1.31403 45.7343C1.12872 46.8671 1.43757 47.7734 0.69632 48Z" fill="#618CAC"/>
</svg>
