<svg width="2" height="48" viewBox="0 0 2 48" fill="none" xmlns="http://www.w3.org/2000/svg">
<path d="M0.744342 48C0.546249 48 0.414187 47.849 0.414187 47.7734C0.282125 47.5469 0.15006 47.2448 0.216091 46.9427C0.282122 46.7916 0.28212 46.7161 0.348151 46.6406C0.414182 46.1119 0.150058 45.5832 0.348151 44.979C0.414182 44.6769 0.15006 44.4504 0.216091 44.1483C0.282122 43.4685 0.0840252 42.7133 0.150056 42.0336C0.150056 41.807 0.150056 41.4294 0.150056 41.1273C0.0840251 40.9007 -0.0480349 40.5231 0.0179961 40.221C0.150058 39.9944 0.15006 39.7678 0.216091 39.4657C0.216091 39.0881 0.216091 38.7105 0.216091 38.3329C0.216091 37.5776 0.150058 36.8979 0.348151 36.1427C0.414182 35.8406 0.282126 35.4629 0.282126 35.1608C0.150064 34.3301 0.480213 33.5748 0.348151 32.6685C0.348151 32.442 0.348151 32.1399 0.348151 31.8378C0.414182 31.4601 0.414188 31.007 0.282126 30.5539C0.282126 30.3273 0.28212 30.1762 0.348151 29.9497C0.348151 29.7231 0.348157 29.421 0.282126 29.0434C0.282126 28.8168 0.348155 28.4392 0.414186 28.1371C0.480217 27.6084 0.348149 27.0797 0.480211 26.4755C0.546242 26.0224 0.348155 25.5692 0.414186 25.1161C0.546248 24.7385 0.414181 24.2098 0.34815 23.8322C0.282119 23.1524 0.480218 22.4727 0.282125 21.793C0.216094 21.5664 0.348154 21.2643 0.414185 20.9622C0.480216 20.5091 0.348148 20.0559 0.48021 19.6028C0.48021 19.4518 0.34815 19.3762 0.34815 19.2252C0.414181 18.1678 0.546241 17.186 0.48021 16.2042C0.414179 15.9776 0.282119 15.8266 0.34815 15.6C0.414181 15.3734 0.414185 15.0713 0.414185 14.7692C0.348154 14.3161 0.282119 13.7874 0.34815 13.3343C0.414181 12.7301 0.150063 12.2014 0.282125 11.6727C0.414187 11.2951 0.480216 10.7664 0.414185 10.3133C0.348154 10.0112 0.34815 9.7091 0.34815 9.407C0.480212 9.02938 0.414185 8.65175 0.414185 8.27413C0.348154 7.89651 0.216094 7.44336 0.282125 7.06573C0.414187 6.38601 0.34815 5.7063 0.34815 5.02658C0.34815 4.87553 0.282125 4.8 0.282125 4.72447C0.348156 4.4979 0.414185 4.27133 0.414185 4.04476C0.282123 3.59161 0.546241 3.06294 0.48021 2.60979C0.414179 2.45875 0.414185 2.3077 0.414185 2.23217C0.546247 1.7035 0.282118 1.25035 0.348149 0.721683C0.41418 0.570634 0.480218 0.495103 0.61228 0.419578C0.678311 0.268529 0.678309 0.11748 0.74434 0.0419557C1.00846 -0.0335688 1.33862 -0.0335665 1.53671 0.268531C1.80083 0.646154 1.80084 1.09931 1.60274 1.47693C1.60274 1.55245 1.60274 1.62797 1.60274 1.70349C1.60274 2.23216 1.80083 2.76084 1.80083 3.28951C1.80083 3.44056 1.60274 3.44055 1.60274 3.5916C1.60274 4.64895 1.47068 5.78182 1.66877 6.83916C1.66877 7.14126 1.73481 7.29231 1.60275 7.5944C1.60275 7.66993 1.66877 7.66993 1.66877 7.74545C1.66877 8.04755 1.73481 8.42518 1.60275 8.8028C1.60275 9.02937 1.60275 9.18042 1.60275 9.407C1.60275 9.78462 1.60275 10.3133 1.60275 10.6909C1.60275 11.6727 1.53671 12.6545 1.66877 13.6364C1.66877 13.7119 1.60275 13.7874 1.60275 13.8629C1.60275 14.0895 1.60275 14.2406 1.60275 14.4671C1.60275 15.2979 1.60275 15.9776 1.60275 16.8084C1.53671 17.1105 1.66878 17.4881 1.60275 17.7902C1.53671 17.9413 1.53671 18.0923 1.53671 18.1678C1.66877 18.3944 1.60275 18.772 1.60275 19.0741C1.53671 19.2252 1.53671 19.3762 1.53671 19.5273C1.66877 20.0559 1.60275 20.5091 1.60275 21.0378C1.60275 21.1133 1.53671 21.2643 1.53671 21.2643C1.66877 21.7175 1.60275 22.3217 1.60275 22.7748C1.53671 22.9259 1.53671 23.0014 1.53671 23.0769C1.60274 23.3035 1.60275 23.4545 1.60275 23.6811C1.47068 24.0587 1.40464 24.5119 1.47068 24.8895C1.53671 25.0406 1.53671 25.1161 1.60275 25.1916C1.66878 25.4182 1.53671 25.6448 1.47068 25.9469C1.40464 26.3245 1.53671 26.7776 1.60275 27.1553C1.66878 27.6839 1.53671 28.1371 1.53671 28.6657C1.53671 29.2699 1.47068 29.8741 1.66877 30.4028C1.53671 31.158 1.60274 31.9133 1.53671 32.6685C1.47068 33.3482 1.53671 34.028 1.53671 34.7077C1.47068 35.3119 1.40465 35.9161 1.47068 36.5203C1.53671 36.5958 1.47068 36.8224 1.40465 36.8224C1.33862 37.9552 1.53671 39.0881 1.40465 40.221C1.40465 40.4475 1.40465 40.5231 1.47068 40.7497C1.47068 40.9007 1.47068 41.0517 1.40465 41.2028C1.33862 42.0336 1.47068 42.7133 1.47068 43.5441C1.47068 43.8462 1.47068 44.2238 1.40465 44.6014C1.40465 44.6769 1.47068 44.6769 1.47068 44.7524C1.53671 45.0545 1.33861 45.2811 1.47068 45.5832C1.47068 45.5832 1.40465 45.6587 1.40465 45.7343C1.20656 46.8671 1.53671 47.7734 0.744342 48Z" fill="#224554"/>
</svg>
