<svg width="2" height="48" viewBox="0 0 2 48" fill="none" xmlns="http://www.w3.org/2000/svg">
<path d="M0.94356 48C0.745467 48 0.613405 47.849 0.613405 47.7734C0.481343 47.5469 0.349279 47.2448 0.41531 46.9427C0.481341 46.7916 0.481339 46.7161 0.54737 46.6406C0.613401 46.1119 0.349277 45.5832 0.54737 44.979C0.613401 44.6769 0.349279 44.4504 0.41531 44.1483C0.481341 43.4685 0.283244 42.7133 0.349275 42.0336C0.349275 41.807 0.349275 41.4294 0.349275 41.1273C0.283244 40.9007 0.151184 40.5231 0.217215 40.221C0.349277 39.9944 0.349279 39.7678 0.41531 39.4657C0.41531 39.0881 0.41531 38.7105 0.41531 38.3329C0.41531 37.5776 0.349277 36.8979 0.54737 36.1427C0.613401 35.8406 0.481345 35.4629 0.481345 35.1608C0.349283 34.3301 0.679432 33.5748 0.54737 32.6685C0.54737 32.442 0.54737 32.1399 0.54737 31.8378C0.613401 31.4601 0.613407 31.007 0.481345 30.5539C0.481345 30.3273 0.481339 30.1762 0.54737 29.9497C0.54737 29.7231 0.547376 29.421 0.481345 29.0434C0.481345 28.8168 0.547374 28.4392 0.613405 28.1371C0.679436 27.6084 0.547367 27.0797 0.679429 26.4755C0.74546 26.0224 0.547373 25.5692 0.613404 25.1161C0.745466 24.7385 0.6134 24.2098 0.547369 23.8322C0.481338 23.1524 0.679437 22.4727 0.481344 21.793C0.415313 21.5664 0.547373 21.2643 0.613404 20.9622C0.679435 20.5091 0.547367 20.0559 0.679429 19.6028C0.679429 19.4518 0.547369 19.3762 0.547369 19.2252C0.6134 18.1678 0.74546 17.186 0.679429 16.2042C0.613398 15.9776 0.481338 15.8266 0.547369 15.6C0.6134 15.3734 0.613404 15.0713 0.613404 14.7692C0.547373 14.3161 0.481338 13.7874 0.547369 13.3343C0.6134 12.7301 0.349282 12.2014 0.481344 11.6727C0.613406 11.2951 0.679435 10.7664 0.613404 10.3133C0.547373 10.0112 0.547369 9.7091 0.547369 9.407C0.679431 9.02938 0.613404 8.65175 0.613404 8.27413C0.547373 7.89651 0.415313 7.44336 0.481344 7.06573C0.613406 6.38601 0.547369 5.7063 0.547369 5.02658C0.547369 4.87553 0.481344 4.8 0.481344 4.72447C0.547375 4.4979 0.613404 4.27133 0.613404 4.04476C0.481342 3.59161 0.74546 3.06294 0.679428 2.60979C0.613397 2.45875 0.613404 2.3077 0.613404 2.23217C0.745466 1.7035 0.481337 1.25035 0.547368 0.721683C0.613399 0.570634 0.679436 0.495103 0.811498 0.419578C0.87753 0.268529 0.877528 0.11748 0.943559 0.0419557C1.20768 -0.0335688 1.53784 -0.0335665 1.73593 0.268531C2.00005 0.646154 2.00006 1.09931 1.80196 1.47693C1.80196 1.55245 1.80196 1.62797 1.80196 1.70349C1.80196 2.23216 2.00005 2.76084 2.00005 3.28951C2.00005 3.44056 1.80196 3.44055 1.80196 3.5916C1.80196 4.64895 1.6699 5.78182 1.86799 6.83916C1.86799 7.14126 1.93403 7.29231 1.80196 7.5944C1.80196 7.66993 1.86799 7.66993 1.86799 7.74545C1.86799 8.04755 1.93403 8.42518 1.80196 8.8028C1.80196 9.02937 1.80196 9.18042 1.80196 9.407C1.80196 9.78462 1.80196 10.3133 1.80196 10.6909C1.80196 11.6727 1.73593 12.6545 1.86799 13.6364C1.86799 13.7119 1.80196 13.7874 1.80196 13.8629C1.80196 14.0895 1.80196 14.2406 1.80196 14.4671C1.80196 15.2979 1.80196 15.9776 1.80196 16.8084C1.73593 17.1105 1.868 17.4881 1.80196 17.7902C1.73593 17.9413 1.73593 18.0923 1.73593 18.1678C1.86799 18.3944 1.80196 18.772 1.80196 19.0741C1.73593 19.2252 1.73593 19.3762 1.73593 19.5273C1.86799 20.0559 1.80196 20.5091 1.80196 21.0378C1.80196 21.1133 1.73593 21.2643 1.73593 21.2643C1.86799 21.7175 1.80196 22.3217 1.80196 22.7748C1.73593 22.9259 1.73593 23.0014 1.73593 23.0769C1.80196 23.3035 1.80196 23.4545 1.80196 23.6811C1.6699 24.0587 1.60386 24.5119 1.66989 24.8895C1.73593 25.0406 1.73593 25.1161 1.80196 25.1916C1.868 25.4182 1.73593 25.6448 1.66989 25.9469C1.60386 26.3245 1.73593 26.7776 1.80196 27.1553C1.868 27.6839 1.73593 28.1371 1.73593 28.6657C1.73593 29.2699 1.6699 29.8741 1.86799 30.4028C1.73593 31.158 1.80196 31.9133 1.73593 32.6685C1.6699 33.3482 1.73593 34.028 1.73593 34.7077C1.6699 35.3119 1.60386 35.9161 1.6699 36.5203C1.73593 36.5958 1.6699 36.8224 1.60387 36.8224C1.53784 37.9552 1.73593 39.0881 1.60387 40.221C1.60387 40.4475 1.60386 40.5231 1.6699 40.7497C1.6699 40.9007 1.6699 41.0517 1.60387 41.2028C1.53784 42.0336 1.6699 42.7133 1.6699 43.5441C1.6699 43.8462 1.6699 44.2238 1.60387 44.6014C1.60387 44.6769 1.6699 44.6769 1.6699 44.7524C1.73593 45.0545 1.53783 45.2811 1.6699 45.5832C1.6699 45.5832 1.60387 45.6587 1.60387 45.7343C1.40578 46.8671 1.73593 47.7734 0.94356 48Z" fill="#224554"/>
</svg>
