<svg width="2" height="48" viewBox="0 0 2 48" fill="none" xmlns="http://www.w3.org/2000/svg">
<path d="M1.01175 48C0.826436 48 0.702895 47.849 0.702895 47.7734C0.579353 47.5469 0.455809 47.2448 0.51758 46.9427C0.579351 46.7916 0.579349 46.7161 0.64112 46.6406C0.702891 46.1119 0.455807 45.5832 0.64112 44.979C0.702891 44.6769 0.455809 44.4504 0.51758 44.1483C0.579351 43.4685 0.394034 42.7133 0.455805 42.0336C0.455805 41.807 0.455805 41.4294 0.455805 41.1273C0.394034 40.9007 0.270494 40.5231 0.332265 40.221C0.455807 39.9944 0.455809 39.7678 0.517579 39.4657C0.517579 39.0881 0.517579 38.7105 0.517579 38.3329C0.517579 37.5776 0.455807 36.8979 0.641119 36.1427C0.70289 35.8406 0.579354 35.4629 0.579354 35.1608C0.455812 34.3301 0.764661 33.5748 0.641119 32.6685C0.641119 32.442 0.641119 32.1399 0.641119 31.8378C0.70289 31.4601 0.702896 31.007 0.579354 30.5539C0.579354 30.3273 0.579348 30.1762 0.641119 29.9497C0.641119 29.7231 0.641125 29.421 0.579354 29.0434C0.579354 28.8168 0.641123 28.4392 0.702894 28.1371C0.764665 27.6084 0.641117 27.0797 0.764659 26.4755C0.82643 26.0224 0.641123 25.5692 0.702894 25.1161C0.826436 24.7385 0.70289 24.2098 0.641119 23.8322C0.579348 23.1524 0.764666 22.4727 0.579354 21.793C0.517583 21.5664 0.641123 21.2643 0.702894 20.9622C0.764664 20.5091 0.641117 20.056 0.764659 19.6028C0.764659 19.4518 0.641119 19.3762 0.641119 19.2252C0.70289 18.1678 0.82643 17.186 0.764659 16.2042C0.702888 15.9776 0.579348 15.8266 0.641119 15.6C0.70289 15.3734 0.702893 15.0713 0.702893 14.7692C0.641122 14.3161 0.579348 13.7874 0.641119 13.3343C0.702889 12.7301 0.455811 12.2014 0.579353 11.6727C0.702895 11.2951 0.764664 10.7664 0.702893 10.3133C0.641122 10.0112 0.641118 9.70909 0.641118 9.407C0.76466 9.02938 0.702893 8.65175 0.702893 8.27413C0.641122 7.89651 0.517582 7.44336 0.579353 7.06573C0.702895 6.38601 0.641118 5.70629 0.641118 5.02658C0.641118 4.87553 0.579353 4.8 0.579353 4.72447C0.641124 4.4979 0.702893 4.27133 0.702893 4.04475C0.579351 3.59161 0.826429 3.06294 0.764658 2.60979C0.702887 2.45875 0.702893 2.3077 0.702893 2.23217C0.826435 1.7035 0.579347 1.25035 0.641118 0.721683C0.702889 0.570633 0.764666 0.495102 0.888207 0.419579C0.949978 0.268528 0.949977 0.117481 1.01175 0.041954C1.25883 -0.0335694 1.56768 -0.0335656 1.753 0.268532C2.00008 0.646152 2.00008 1.0993 1.81477 1.47693C1.81477 1.55245 1.81477 1.62797 1.81477 1.70349C1.81477 2.23216 2.00008 2.76084 2.00008 3.28951C2.00008 3.44056 1.81477 3.44056 1.81477 3.5916C1.81477 4.64894 1.69122 5.78181 1.87654 6.83916C1.87654 7.14126 1.93831 7.2923 1.81477 7.5944C1.81477 7.66993 1.87654 7.66993 1.87654 7.74545C1.87654 8.04755 1.93831 8.42518 1.81477 8.8028C1.81477 9.02937 1.81477 9.18042 1.81477 9.407C1.81477 9.78462 1.81477 10.3133 1.81477 10.6909C1.81477 11.6727 1.753 12.6545 1.87654 13.6364C1.87654 13.7119 1.81477 13.7874 1.81477 13.8629C1.81477 14.0895 1.81477 14.2406 1.81477 14.4671C1.81477 15.2979 1.81477 15.9776 1.81477 16.8084C1.753 17.1105 1.87654 17.4881 1.81477 17.7902C1.753 17.9413 1.753 18.0923 1.753 18.1678C1.87654 18.3944 1.81477 18.772 1.81477 19.0741C1.753 19.2252 1.753 19.3762 1.753 19.5273C1.87654 20.0559 1.81477 20.5091 1.81477 21.0378C1.81477 21.1133 1.753 21.2643 1.753 21.2643C1.87654 21.7175 1.81477 22.3217 1.81477 22.7748C1.753 22.9259 1.753 23.0014 1.753 23.0769C1.81477 23.3035 1.81477 23.4545 1.81477 23.6811C1.69123 24.0587 1.62945 24.5119 1.69122 24.8895C1.75299 25.0406 1.753 25.1161 1.81477 25.1916C1.87654 25.4182 1.75299 25.6448 1.69122 25.9469C1.62945 26.3245 1.753 26.7776 1.81477 27.1553C1.87654 27.6839 1.753 28.1371 1.753 28.6657C1.753 29.2699 1.69123 29.8741 1.87654 30.4028C1.753 31.158 1.81477 31.9133 1.753 32.6685C1.69123 33.3482 1.753 34.028 1.753 34.7077C1.69123 35.3119 1.62945 35.9161 1.69122 36.5203C1.75299 36.5958 1.69123 36.8224 1.62946 36.8224C1.56769 37.9552 1.753 39.0881 1.62946 40.221C1.62946 40.4475 1.62945 40.5231 1.69122 40.7497C1.69122 40.9007 1.69123 41.0517 1.62946 41.2028C1.56769 42.0336 1.69122 42.7133 1.69122 43.5441C1.69122 43.8462 1.69123 44.2238 1.62946 44.6014C1.62946 44.6769 1.69122 44.6769 1.69122 44.7524C1.75299 45.0545 1.56768 45.2811 1.69122 45.5832C1.69122 45.5832 1.62946 45.6587 1.62946 45.7343C1.44415 46.8671 1.753 47.7734 1.01175 48Z" fill="#618CAC"/>
</svg>
