<svg width="3" height="48" viewBox="0 0 3 48" fill="none" xmlns="http://www.w3.org/2000/svg">
<path d="M1.73412 48C1.49678 48 1.33855 47.849 1.33855 47.7734C1.18031 47.5469 1.02208 47.2448 1.1012 46.9427C1.18031 46.7916 1.18031 46.7161 1.25943 46.6406C1.33854 46.1119 1.02208 45.5832 1.25943 44.979C1.33854 44.6769 1.02208 44.4504 1.1012 44.1483C1.18031 43.4685 0.942961 42.7133 1.02208 42.0336C1.02208 41.807 1.02208 41.4294 1.02208 41.1273C0.94296 40.9007 0.784732 40.5231 0.863847 40.221C1.02208 39.9944 1.02208 39.7678 1.1012 39.4657C1.1012 39.0881 1.1012 38.7105 1.1012 38.3329C1.1012 37.5776 1.02208 36.8979 1.25942 36.1427C1.33854 35.8406 1.18032 35.4629 1.18032 35.1608C1.02209 34.3301 1.41766 33.5748 1.25942 32.6685C1.25942 32.442 1.25942 32.1399 1.25942 31.8378C1.33854 31.4601 1.33855 31.007 1.18032 30.5539C1.18032 30.3273 1.18031 30.1762 1.25942 29.9497C1.25942 29.7231 1.25943 29.421 1.18032 29.0434C1.18032 28.8168 1.25943 28.4392 1.33854 28.1371C1.41766 27.6084 1.25942 27.0797 1.41765 26.4755C1.49677 26.0224 1.25943 25.5692 1.33854 25.1161C1.49678 24.7385 1.33854 24.2098 1.25942 23.8322C1.18031 23.1524 1.41766 22.4727 1.18032 21.793C1.1012 21.5664 1.25943 21.2643 1.33854 20.9622C1.41766 20.5091 1.25942 20.056 1.41765 19.6028C1.41765 19.4518 1.25942 19.3762 1.25942 19.2252C1.33854 18.1678 1.49677 17.186 1.41765 16.2042C1.33854 15.9776 1.18031 15.8266 1.25942 15.6C1.33854 15.3734 1.33854 15.0713 1.33854 14.7692C1.25943 14.3161 1.18031 13.7874 1.25942 13.3343C1.33854 12.7301 1.02208 12.2014 1.18032 11.6727C1.33855 11.2951 1.41766 10.7664 1.33854 10.3133C1.25943 10.0112 1.25942 9.70909 1.25942 9.407C1.41765 9.02938 1.33854 8.65175 1.33854 8.27413C1.25943 7.89651 1.1012 7.44336 1.18032 7.06573C1.33855 6.38601 1.25942 5.70629 1.25942 5.02658C1.25942 4.87553 1.18031 4.8 1.18031 4.72447C1.25943 4.4979 1.33854 4.27133 1.33854 4.04475C1.18031 3.59161 1.49677 3.06294 1.41765 2.60979C1.33854 2.45875 1.33854 2.3077 1.33854 2.23217C1.49677 1.7035 1.18031 1.25035 1.25942 0.721683C1.33854 0.570633 1.41766 0.495102 1.57589 0.419579C1.65501 0.268528 1.65501 0.117481 1.73412 0.041954C2.05058 -0.0335694 2.44616 -0.0335656 2.6835 0.268532C2.99997 0.646152 2.99997 1.0993 2.76262 1.47693C2.76262 1.55245 2.76262 1.62797 2.76262 1.70349C2.76262 2.23216 2.99996 2.76084 2.99996 3.28951C2.99996 3.44056 2.76262 3.44056 2.76262 3.5916C2.76262 4.64894 2.60439 5.78181 2.84173 6.83916C2.84173 7.14126 2.92086 7.2923 2.76263 7.5944C2.76263 7.66993 2.84173 7.66993 2.84173 7.74545C2.84173 8.04755 2.92086 8.42518 2.76263 8.8028C2.76263 9.02937 2.76263 9.18042 2.76263 9.407C2.76263 9.78462 2.76263 10.3133 2.76263 10.6909C2.76263 11.6727 2.6835 12.6545 2.84173 13.6364C2.84173 13.7119 2.76263 13.7874 2.76263 13.8629C2.76263 14.0895 2.76263 14.2406 2.76263 14.4671C2.76263 15.2979 2.76263 15.9776 2.76263 16.8084C2.68351 17.1105 2.84174 17.4881 2.76263 17.7902C2.68351 17.9413 2.68351 18.0923 2.68351 18.1678C2.84174 18.3944 2.76263 18.772 2.76263 19.0741C2.68351 19.2252 2.68351 19.3762 2.68351 19.5273C2.84174 20.0559 2.76263 20.5091 2.76263 21.0378C2.76263 21.1133 2.68351 21.2643 2.68351 21.2643C2.84174 21.7175 2.76263 22.3217 2.76263 22.7748C2.68351 22.9259 2.68351 23.0014 2.68351 23.0769C2.76262 23.3035 2.76263 23.4545 2.76263 23.6811C2.60439 24.0587 2.52527 24.5119 2.60439 24.8895C2.6835 25.0406 2.68351 25.1161 2.76263 25.1916C2.84174 25.4182 2.6835 25.6448 2.60439 25.9469C2.52527 26.3245 2.68351 26.7776 2.76263 27.1553C2.84174 27.6839 2.68351 28.1371 2.68351 28.6657C2.68351 29.2699 2.60439 29.8741 2.84173 30.4028C2.6835 31.158 2.76262 31.9133 2.68351 32.6685C2.60439 33.3482 2.68351 34.028 2.68351 34.7077C2.60439 35.3119 2.52527 35.9161 2.60439 36.5203C2.6835 36.5958 2.60439 36.8224 2.52528 36.8224C2.44616 37.9552 2.68351 39.0881 2.52528 40.221C2.52528 40.4475 2.52527 40.5231 2.60439 40.7497C2.60439 40.9007 2.60439 41.0517 2.52528 41.2028C2.44616 42.0336 2.60439 42.7133 2.60439 43.5441C2.60439 43.8462 2.60439 44.2238 2.52528 44.6014C2.52528 44.6769 2.60439 44.6769 2.60439 44.7524C2.6835 45.0545 2.44616 45.2811 2.60439 45.5832C2.60439 45.5832 2.52528 45.6587 2.52528 45.7343C2.28793 46.8671 2.68351 47.7734 1.73412 48Z" fill="white"/>
</svg>
