<svg width="203" height="2" viewBox="0 0 203 2" fill="none" xmlns="http://www.w3.org/2000/svg">
<path d="M0 0.826786C0 0.606785 0.638797 0.460117 0.958202 0.460117C1.91642 0.313449 3.19404 0.166779 4.47166 0.240113C5.11047 0.313447 5.4299 0.313444 5.74931 0.386778C7.98515 0.460112 10.221 0.166777 12.7762 0.386778C14.0538 0.460112 15.012 0.166779 16.2897 0.240113C19.1643 0.313447 22.3584 0.0934405 25.233 0.166774C26.1912 0.166774 27.7883 0.166774 29.0659 0.166774C30.0241 0.0934405 31.6212 -0.053225 32.8988 0.0201089C33.857 0.166777 34.8152 0.166779 36.0928 0.240113C37.6899 0.240113 39.2869 0.240113 40.8839 0.240113C44.078 0.240113 46.9526 0.166777 50.1467 0.386778C51.4243 0.460112 53.0213 0.313451 54.299 0.313451C57.8124 0.166783 61.0065 0.533446 64.8393 0.386778C65.7976 0.386778 67.0752 0.386778 68.3528 0.386778C69.9498 0.460112 71.8662 0.460119 73.7827 0.313451C74.7409 0.313451 75.3797 0.313444 76.3379 0.386778C77.2961 0.386778 78.5737 0.386785 80.1708 0.313451C81.129 0.313451 82.7261 0.386783 84.0037 0.460117C86.2395 0.533451 88.4753 0.386776 91.0306 0.533444C92.947 0.606778 94.8635 0.386783 96.7799 0.460117C98.3769 0.606785 100.613 0.460112 102.21 0.386778C105.084 0.313444 107.959 0.533453 110.834 0.313451C111.792 0.240117 113.07 0.386783 114.347 0.460117C116.264 0.533451 118.18 0.386776 120.096 0.533444C120.735 0.533444 121.055 0.386778 121.694 0.386778C126.165 0.460112 130.317 0.606778 134.47 0.533444C135.428 0.46011 136.067 0.313444 137.025 0.386778C137.983 0.460112 139.261 0.460117 140.538 0.460117C142.455 0.386783 144.691 0.313444 146.607 0.386778C149.162 0.460112 151.398 0.166783 153.634 0.313451C155.231 0.460119 157.467 0.533451 159.383 0.460117C160.661 0.386783 161.939 0.386778 163.216 0.386778C164.813 0.533446 166.41 0.460117 168.007 0.460117C169.604 0.386783 171.521 0.240117 173.118 0.313451C175.992 0.460119 178.867 0.386778 181.742 0.386778C182.381 0.386778 182.7 0.313451 183.019 0.313451C183.978 0.386785 184.936 0.460117 185.894 0.460117C187.81 0.313449 190.046 0.606778 191.963 0.533444C192.602 0.46011 193.24 0.460117 193.56 0.460117C195.796 0.606785 197.712 0.313444 199.948 0.386778C200.587 0.460112 200.906 0.533453 201.226 0.680121C201.864 0.753455 202.503 0.753452 202.823 0.826786C203.142 1.12012 203.142 1.48679 201.864 1.70679C200.267 2.00013 198.351 2.00013 196.754 1.78013C196.434 1.78013 196.115 1.78013 195.796 1.78013C193.56 1.78013 191.324 2.00012 189.088 2.00012C188.449 2.00012 188.449 1.78013 187.811 1.78013C183.339 1.78013 178.548 1.63345 174.076 1.85346C172.798 1.85346 172.16 1.9268 170.882 1.78013C170.563 1.78013 170.563 1.85346 170.243 1.85346C168.966 1.85346 167.369 1.9268 165.771 1.78013C164.813 1.78013 164.174 1.78013 163.216 1.78013C161.619 1.78013 159.383 1.78013 157.786 1.78013C153.634 1.78013 149.482 1.70679 145.33 1.85346C145.01 1.85346 144.691 1.78013 144.371 1.78013C143.413 1.78013 142.774 1.78013 141.816 1.78013C138.303 1.78013 135.428 1.78013 131.915 1.78013C130.637 1.7068 129.04 1.85346 127.762 1.78013C127.123 1.7068 126.485 1.70679 126.165 1.70679C125.207 1.85346 123.61 1.78013 122.332 1.78013C121.694 1.7068 121.055 1.70679 120.416 1.70679C118.18 1.85346 116.264 1.78013 114.028 1.78013C113.708 1.78013 113.07 1.70679 113.07 1.70679C111.153 1.85346 108.598 1.78013 106.681 1.78013C106.043 1.7068 105.723 1.70679 105.404 1.70679C104.446 1.78012 103.807 1.78013 102.849 1.78013C101.252 1.63346 99.3351 1.56012 97.7381 1.63345C97.0993 1.70679 96.7799 1.7068 96.4605 1.78013C95.5023 1.85346 94.5441 1.70679 93.2664 1.63345C91.6694 1.56012 89.7529 1.7068 88.1559 1.78013C85.9201 1.85346 84.0036 1.70679 81.7678 1.70679C79.2126 1.70679 76.6574 1.63345 74.4215 1.85346C71.2275 1.70679 68.0334 1.78012 64.8393 1.70679C61.9647 1.63346 59.09 1.70679 56.2154 1.70679C53.6601 1.63346 51.1049 1.56012 48.5496 1.63345C48.2302 1.70679 47.272 1.63346 47.272 1.56013C42.481 1.48679 37.6899 1.70679 32.8988 1.56013C31.9406 1.56013 31.6211 1.56012 30.6629 1.63345C30.0241 1.63345 29.3853 1.63346 28.7465 1.56013C25.233 1.48679 22.3584 1.63345 18.8449 1.63345C17.5673 1.63345 15.9703 1.63346 14.3733 1.56013C14.0538 1.56013 14.0539 1.63345 13.7345 1.63345C12.4568 1.70679 11.4986 1.48678 10.221 1.63345C10.221 1.63345 9.90157 1.56013 9.58217 1.56013C4.79108 1.34012 0.958217 1.70679 0 0.826786Z" fill="#618CAC"/>
</svg>
