<svg width="217" height="2" viewBox="0 0 217 2" fill="none" xmlns="http://www.w3.org/2000/svg">
<path d="M0 0.826786C0 0.606785 0.682852 0.460117 1.02429 0.460117C2.04859 0.313449 3.41431 0.166779 4.78005 0.240113C5.46292 0.313447 5.80438 0.313444 6.14581 0.386778C8.53585 0.460112 10.9259 0.166777 13.6573 0.386778C15.0231 0.460112 16.0473 0.166779 17.4131 0.240113C20.486 0.313447 23.9003 0.0934405 26.9732 0.166774C27.9975 0.166774 29.7047 0.166774 31.0704 0.166774C32.0947 0.0934405 33.8019 -0.053225 35.1677 0.0201089C36.192 0.166777 37.2163 0.166779 38.582 0.240113C40.2892 0.240113 41.9963 0.240113 43.7035 0.240113C47.1178 0.240113 50.1907 0.166777 53.6051 0.386778C54.9708 0.460112 56.678 0.313451 58.0437 0.313451C61.7995 0.166783 65.2138 0.533446 69.311 0.386778C70.3353 0.386778 71.701 0.386778 73.0668 0.386778C74.7739 0.460112 76.8225 0.460119 78.8711 0.313451C79.8954 0.313451 80.5783 0.313444 81.6026 0.386778C82.6269 0.386778 83.9926 0.386785 85.6998 0.313451C86.7241 0.313451 88.4313 0.386783 89.797 0.460117C92.1871 0.533451 94.5771 0.386776 97.3086 0.533444C99.3572 0.606778 101.406 0.386783 103.454 0.460117C105.162 0.606785 107.552 0.460112 109.259 0.386778C112.332 0.313444 115.405 0.533453 118.477 0.313451C119.502 0.240117 120.867 0.386783 122.233 0.460117C124.282 0.533451 126.33 0.386776 128.379 0.533444C129.062 0.533444 129.403 0.386778 130.086 0.386778C134.866 0.460112 139.305 0.606778 143.744 0.533444C144.768 0.46011 145.451 0.313444 146.475 0.386778C147.499 0.460112 148.865 0.460117 150.231 0.460117C152.279 0.386783 154.669 0.313444 156.718 0.386778C159.449 0.460112 161.839 0.166783 164.23 0.313451C165.937 0.460119 168.327 0.533451 170.375 0.460117C171.741 0.386783 173.107 0.386778 174.473 0.386778C176.18 0.533446 177.887 0.460117 179.594 0.460117C181.301 0.386783 183.35 0.240117 185.057 0.313451C188.13 0.460119 191.203 0.386778 194.276 0.386778C194.959 0.386778 195.3 0.313451 195.641 0.313451C196.666 0.386785 197.69 0.460117 198.714 0.460117C200.763 0.313449 203.153 0.606778 205.202 0.533444C205.884 0.46011 206.567 0.460117 206.909 0.460117C209.299 0.606785 211.347 0.313444 213.737 0.386778C214.42 0.460112 214.762 0.533453 215.103 0.680121C215.786 0.753455 216.469 0.753452 216.81 0.826786C217.152 1.12012 217.152 1.48679 215.786 1.70679C214.079 2.00013 212.03 2.00013 210.323 1.78013C209.982 1.78013 209.64 1.78013 209.299 1.78013C206.909 1.78013 204.519 2.00012 202.129 2.00012C201.446 2.00012 201.446 1.78013 200.763 1.78013C195.983 1.78013 190.861 1.63345 186.081 1.85346C184.716 1.85346 184.033 1.9268 182.667 1.78013C182.326 1.78013 182.326 1.85346 181.984 1.85346C180.618 1.85346 178.911 1.9268 177.204 1.78013C176.18 1.78013 175.497 1.78013 174.473 1.78013C172.765 1.78013 170.375 1.78013 168.668 1.78013C164.23 1.78013 159.791 1.70679 155.352 1.85346C155.011 1.85346 154.669 1.78013 154.328 1.78013C153.304 1.78013 152.621 1.78013 151.596 1.78013C147.841 1.78013 144.768 1.78013 141.012 1.78013C139.646 1.7068 137.939 1.85346 136.573 1.78013C135.891 1.7068 135.208 1.70679 134.866 1.70679C133.842 1.85346 132.135 1.78013 130.769 1.78013C130.086 1.7068 129.403 1.70679 128.72 1.70679C126.33 1.85346 124.282 1.78013 121.892 1.78013C121.55 1.78013 120.867 1.70679 120.867 1.70679C118.819 1.85346 116.087 1.78013 114.039 1.78013C113.356 1.7068 113.015 1.70679 112.673 1.70679C111.649 1.78012 110.966 1.78013 109.942 1.78013C108.234 1.63346 106.186 1.56012 104.479 1.63345C103.796 1.70679 103.454 1.7068 103.113 1.78013C102.089 1.85346 101.064 1.70679 99.6986 1.63345C97.9914 1.56012 95.9428 1.7068 94.2356 1.78013C91.8456 1.85346 89.797 1.70679 87.407 1.70679C84.6755 1.70679 81.9441 1.63345 79.554 1.85346C76.1397 1.70679 72.7254 1.78012 69.311 1.70679C66.2381 1.63346 63.1652 1.70679 60.0923 1.70679C57.3608 1.63346 54.6294 1.56012 51.8979 1.63345C51.5565 1.70679 50.5322 1.63346 50.5322 1.56013C45.4107 1.48679 40.2892 1.70679 35.1677 1.56013C34.1434 1.56013 33.8019 1.56012 32.7776 1.63345C32.0947 1.63345 31.4119 1.63346 30.729 1.56013C26.9733 1.48679 23.9003 1.63345 20.1446 1.63345C18.7788 1.63345 17.0717 1.63346 15.3645 1.56013C15.0231 1.56013 15.0231 1.63345 14.6817 1.63345C13.3159 1.70679 12.2916 1.48678 10.9259 1.63345C10.9259 1.63345 10.5844 1.56013 10.243 1.56013C5.1215 1.34012 1.0243 1.70679 0 0.826786Z" fill="#224554"/>
</svg>
