<svg width="260" height="2" viewBox="0 0 260 2" fill="none" xmlns="http://www.w3.org/2000/svg">
<path d="M0 0.826664C0 0.606663 0.818163 0.459995 1.22725 0.459995C2.45453 0.313327 4.09088 0.166657 5.72725 0.239991C6.54543 0.313325 6.95456 0.313322 7.36365 0.386656C10.2273 0.45999 13.0909 0.166655 16.3636 0.386656C18 0.45999 19.2272 0.166657 20.8636 0.239991C24.5454 0.313325 28.6363 0.0933185 32.3182 0.166652C33.5454 0.166652 35.5909 0.166652 37.2272 0.166652C38.4545 0.0933185 40.5 -0.0533471 42.1364 0.0199868C43.3636 0.166655 44.5909 0.166657 46.2273 0.239991C48.2727 0.239991 50.3182 0.239991 52.3636 0.239991C56.4546 0.239991 60.1363 0.166655 64.2273 0.386656C65.8636 0.45999 67.9091 0.313329 69.5455 0.313329C74.0455 0.166661 78.1364 0.533324 83.0455 0.386656C84.2727 0.386656 85.9091 0.386656 87.5454 0.386656C89.5909 0.45999 92.0454 0.459997 94.5 0.313329C95.7272 0.313329 96.5454 0.313322 97.7727 0.386656C99 0.386656 100.636 0.386663 102.682 0.313329C103.909 0.313329 105.955 0.386661 107.591 0.459995C110.455 0.533329 113.318 0.386654 116.591 0.533322C119.045 0.606656 121.5 0.386661 123.955 0.459995C126 0.606663 128.864 0.45999 130.909 0.386656C134.591 0.313322 138.273 0.533331 141.955 0.313329C143.182 0.239995 144.818 0.386661 146.455 0.459995C148.909 0.533329 151.364 0.386654 153.818 0.533322C154.636 0.533322 155.045 0.386656 155.864 0.386656C161.591 0.45999 166.909 0.606656 172.227 0.533322C173.454 0.459988 174.273 0.313322 175.5 0.386656C176.727 0.45999 178.364 0.459995 180 0.459995C182.455 0.386661 185.318 0.313322 187.773 0.386656C191.045 0.45999 193.909 0.166661 196.773 0.313329C198.818 0.459997 201.682 0.533329 204.136 0.459995C205.773 0.386661 207.409 0.386656 209.045 0.386656C211.091 0.533324 213.136 0.459995 215.182 0.459995C217.227 0.386661 219.682 0.239995 221.727 0.313329C225.409 0.459997 229.091 0.386656 232.773 0.386656C233.591 0.386656 234 0.313329 234.409 0.313329C235.636 0.386663 236.864 0.459995 238.091 0.459995C240.545 0.313327 243.409 0.606656 245.864 0.533322C246.682 0.459988 247.5 0.459995 247.909 0.459995C250.773 0.606663 253.227 0.313322 256.091 0.386656C256.909 0.45999 257.318 0.533331 257.727 0.679999C258.545 0.753333 259.364 0.75333 259.773 0.826664C260.182 1.12 260.182 1.48667 258.545 1.70667C256.5 2 254.045 2.00001 252 1.78001C251.591 1.78001 251.182 1.78001 250.773 1.78001C247.909 1.78001 245.045 2 242.182 2C241.364 2 241.364 1.78001 240.545 1.78001C234.818 1.78001 228.682 1.63333 222.955 1.85333C221.318 1.85333 220.5 1.92667 218.864 1.78001C218.455 1.78001 218.455 1.85333 218.045 1.85333C216.409 1.85333 214.364 1.92667 212.318 1.78001C211.091 1.78001 210.273 1.78001 209.045 1.78001C207 1.78001 204.136 1.78001 202.091 1.78001C196.773 1.78001 191.455 1.70667 186.136 1.85333C185.727 1.85333 185.318 1.78001 184.909 1.78001C183.682 1.78001 182.864 1.78001 181.636 1.78001C177.136 1.78001 173.455 1.78001 168.955 1.78001C167.318 1.70667 165.273 1.85334 163.636 1.78001C162.818 1.70667 162 1.70667 161.591 1.70667C160.364 1.85334 158.318 1.78001 156.682 1.78001C155.864 1.70667 155.045 1.70667 154.227 1.70667C151.364 1.85334 148.909 1.78001 146.045 1.78001C145.636 1.78001 144.818 1.70667 144.818 1.70667C142.364 1.85334 139.091 1.78001 136.636 1.78001C135.818 1.70667 135.409 1.70667 135 1.70667C133.773 1.78 132.955 1.78001 131.727 1.78001C129.682 1.63334 127.227 1.56 125.182 1.63333C124.364 1.70666 123.955 1.70667 123.545 1.78001C122.318 1.85334 121.091 1.70666 119.455 1.63333C117.409 1.56 114.955 1.70667 112.909 1.78001C110.045 1.85334 107.591 1.70667 104.727 1.70667C101.455 1.70667 98.1818 1.63333 95.3182 1.85333C91.2273 1.70667 87.1364 1.78 83.0455 1.70667C79.3636 1.63333 75.6818 1.70667 72 1.70667C68.7272 1.63333 65.4545 1.56 62.1818 1.63333C61.7727 1.70666 60.5455 1.63334 60.5455 1.56C54.4091 1.48667 48.2727 1.70667 42.1364 1.56C40.9091 1.56 40.5 1.56 39.2727 1.63333C38.4545 1.63333 37.6364 1.63334 36.8182 1.56C32.3182 1.48667 28.6363 1.63333 24.1363 1.63333C22.5 1.63333 20.4545 1.63334 18.4091 1.56C18 1.56 18 1.63333 17.5909 1.63333C15.9546 1.70666 14.7273 1.48666 13.0909 1.63333C13.0909 1.63333 12.6818 1.56 12.2727 1.56C6.13636 1.34 1.22727 1.70667 0 0.826664Z" fill="white"/>
</svg>
