<svg width="27" height="27" viewBox="0 0 27 27" fill="none" xmlns="http://www.w3.org/2000/svg">
<mask id="mask0_218_7911" style="mask-type:alpha" maskUnits="userSpaceOnUse" x="0" y="0" width="27" height="27">
<rect width="26.963" height="26.963" fill="#D9D9D9"/>
</mask>
<g mask="url(#mask0_218_7911)">
<path d="M3.37061 20.2223V14.605C3.37061 14.2723 3.46639 13.9179 3.65796 13.542C3.84951 13.1661 4.12821 12.8838 4.49406 12.6951V10.1111C4.49406 9.47739 4.71012 8.94446 5.14222 8.51236C5.57432 8.08026 6.10724 7.86421 6.74098 7.86421H11.7965C12.184 7.86421 12.5146 7.94379 12.7882 8.10295C13.0619 8.2621 13.2931 8.48211 13.4817 8.76298C13.6704 8.48211 13.9016 8.2621 14.1752 8.10295C14.4489 7.94379 14.7795 7.86421 15.1669 7.86421H20.2225C20.8562 7.86421 21.3892 8.08026 21.8213 8.51236C22.2534 8.94446 22.4694 9.47739 22.4694 10.1111V12.6951C22.8353 12.8838 23.114 13.1661 23.3055 13.542C23.4971 13.9179 23.5929 14.2723 23.5929 14.605V20.2223H22.4694V17.9753H4.49406V20.2223H3.37061ZM14.0435 12.358H21.346V10.1111C21.346 9.79282 21.2383 9.526 21.023 9.31067C20.8076 9.09534 20.5408 8.98767 20.2225 8.98767H15.1669C14.8486 8.98767 14.5818 9.09534 14.3665 9.31067C14.1511 9.526 14.0435 9.79282 14.0435 10.1111V12.358ZM5.61752 12.358H12.92V10.1111C12.92 9.79282 12.8123 9.526 12.597 9.31067C12.3817 9.09534 12.1149 8.98767 11.7965 8.98767H6.74098C6.42267 8.98767 6.15585 9.09534 5.94052 9.31067C5.72519 9.526 5.61752 9.79282 5.61752 10.1111V12.358ZM4.49406 16.8519H22.4694V14.605C22.4694 14.2867 22.3617 14.0198 22.1464 13.8045C21.9311 13.5892 21.6643 13.4815 21.346 13.4815H5.61752C5.29921 13.4815 5.03239 13.5892 4.81706 13.8045C4.60173 14.0198 4.49406 14.2867 4.49406 14.605V16.8519Z" fill="#618CAC"/>
</g>
</svg>
