<?xml version="1.0" encoding="utf-8"?>
<!-- Generator: Adobe Illustrator 27.1.1, SVG Export Plug-In . SVG Version: 6.00 Build 0)  -->
<svg version="1.1" id="Layer_1" xmlns="http://www.w3.org/2000/svg" xmlns:xlink="http://www.w3.org/1999/xlink" x="0px" y="0px"
	 viewBox="0 0 115 36.4" style="enable-background:new 0 0 115 36.4;" xml:space="preserve">
<style type="text/css">
	.st0{opacity:8.000000e-02;}
	.st1{fill:#221F72;}
</style>
<g class="st0">
	<path class="st1" d="M3.7,8.1c-1-0.3-3.1-1.9-1.9-3c0.6-0.6,1.7-0.5,2.5-0.6c1-0.1,1.8-0.3,2.8-0.3c0.6,0,1.6-0.4,2.2-0.1
		c0.7,0.4,1,1.3,0.8,2C9.7,6.8,8.6,7.6,8,8C7.3,8.5,6.2,8.6,5.4,8.4C5,8.4,4.9,8.4,4.5,8.3C4.2,8.2,4,8.1,3.7,8.1"/>
	<path class="st1" d="M111.3,7.4c1-0.3,3.1-1.9,1.9-3c-0.6-0.6-1.7-0.5-2.5-0.6c-1-0.1-1.8-0.3-2.8-0.3c-0.6,0-1.6-0.4-2.2-0.1
		c-0.7,0.4-1,1.3-0.8,2c0.3,0.7,1.4,1.5,2,1.8c0.7,0.5,1.8,0.6,2.6,0.4c0.4-0.1,0.5-0.1,0.9-0.1C110.8,7.5,111,7.4,111.3,7.4"/>
	<path class="st1" d="M10.9,10.4c-0.2-0.3-0.1-0.8-0.1-1.1c0-0.4,0-0.8,0-1.2c0.1-0.7,0.4-1.5,0.6-2.2c0.2-0.7,0.7-1.2,1.3-1.7
		c0.6-0.4,1.6-0.3,2.4-0.4c0.8-0.1,1.5,0,2.1,0.5c0.6,0.6,0.8,1.3,0.6,2.1c-0.2,0.7-0.4,1.3-0.8,2c-0.4,0.8-1.3,1.5-2,2.1
		c-0.7,0.7-1.7,2.4-2.9,1.8c-0.5-0.3-0.9-0.9-1.2-1.3c-0.4-0.5-0.3-0.9-0.3-1.5"/>
	<path class="st1" d="M104.1,9.7c0.2-0.3,0.1-0.8,0.1-1.1c0-0.4,0-0.8,0-1.2c-0.1-0.7-0.4-1.5-0.6-2.2c-0.2-0.7-0.7-1.2-1.3-1.7
		c-0.6-0.4-1.6-0.3-2.4-0.4C99,3,98.3,3,97.7,3.6c-0.6,0.6-0.8,1.3-0.6,2.1c0.2,0.7,0.4,1.3,0.8,2c0.4,0.8,1.3,1.5,2,2.1
		c0.7,0.7,1.7,2.4,2.9,1.8c0.5-0.3,0.9-0.9,1.2-1.3c0.4-0.5,0.3-0.9,0.3-1.5"/>
	<path class="st1" d="M20.6,6.5c-0.5-0.5-1.3-1.2-1.1-2c0.1-0.8,0.9-1.2,1.7-1.3c0.4,0,0.8,0,1.2,0c0.4,0,0.8-0.1,1.3-0.1
		c0.4,0,0.8,0,1.3-0.1c0.3-0.1,0.7-0.3,1.1-0.4C26.8,2.4,28,2.7,28.6,3c0.7,0.4,0.3,1.2,0.1,1.9c-0.2,0.7-0.9,1.2-1.5,1.6
		c-0.3,0.2-0.6,0.3-0.9,0.4c-0.4,0.2-0.6,0.4-1,0.4c-1,0.1-1.8-0.1-2.9-0.4c-0.4-0.1-0.8-0.2-1.2-0.3c-0.5-0.1-0.6-0.3-0.9-0.6"/>
	<path class="st1" d="M94.4,5.8c0.5-0.5,1.3-1.2,1.1-2c-0.1-0.8-0.9-1.2-1.7-1.3c-0.4,0-0.8,0-1.2,0c-0.4,0-0.8-0.1-1.3-0.1
		c-0.4,0-0.8,0-1.3-0.1c-0.3-0.1-0.7-0.3-1.1-0.4c-0.7-0.1-1.9,0.1-2.6,0.5c-0.7,0.4-0.3,1.2-0.1,1.9c0.2,0.7,0.9,1.2,1.5,1.6
		c0.3,0.2,0.6,0.3,0.9,0.4c0.4,0.2,0.6,0.4,1,0.4c1,0.1,1.8-0.1,2.9-0.4C93,6.1,93.4,6,93.8,5.9c0.5-0.1,0.6-0.3,0.9-0.6"/>
	<path class="st1" d="M18.2,13c-0.3-0.2-0.8-0.7-1-1c-0.3-0.5,0-1.1,0.4-1.5c0.6-0.8,1.6-1.6,2.6-1.8c1-0.1,2-0.5,3.1-0.3
		c0.6,0.1,1.2,0.3,1.6,0.8c0.3,0.4,0.8,0.8,1,1.2c0.2,0.4,0.1,0.9,0.1,1.4c-0.1,0.2-0.2,0.4-0.2,0.7c-0.1,0.3,0,0.7,0,1
		c0,0.4-0.1,1-0.3,1.4c-0.2,0.5-0.7,0.7-1.1,0.8c-0.5,0.1-0.9,0.2-1.3,0c-0.4-0.2-0.8-0.6-1.1-0.9c-0.2-0.2-0.4-0.4-0.6-0.5
		c-0.2-0.1-0.5-0.3-0.7-0.4c-0.5-0.2-1-0.3-1.5-0.5c-0.3-0.1-1.1-0.2-1.1-0.6"/>
	<path class="st1" d="M28,11.4c-0.7-0.8-1.7-1.7-1.6-2.9c0.1-0.9,1.3-2,2.3-1.7c0.6,0.1,1.1,0.3,1.7,0.3c0.5,0,1,0,1.5,0.1
		C33,7.2,33.7,8,34.3,8.9c0.2,0.4,0.3,0.9,0.5,1.3c0.2,0.6-0.1,0.9-0.4,1.3C33.7,12.2,33,13.1,32,13c-0.4,0-0.8-0.3-1.1-0.4
		c-0.4-0.1-0.8-0.3-1.2-0.3c-0.4-0.1-0.9,0-1.3-0.3c-0.3-0.2-0.4-0.5-0.6-0.8"/>
	<path class="st1" d="M26.9,17.8c-0.2-0.5-0.5-1-0.5-1.6c0-0.6,0.5-1.1,0.8-1.6c0.3-0.4,0.7-0.8,1.1-1c0.5-0.3,1-0.1,1.4,0
		c0.4,0.1,0.9,0,1.3,0.2c0.4,0.2,0.9,0.6,1.2,1c0.4,0.4,0.8,0.9,1.1,1.4c0.1,0.2,0.3,0.4,0.4,0.6c0.1,0.2,0.4,0.4,0.5,0.6
		c0.2,0.4,0.4,0.9,0.5,1.4c0.1,0.7-0.1,1-0.2,1.7c-0.2,0.9-1.5,1.8-2.4,1.4c-0.4-0.2-0.7-0.7-1-1c-0.4-0.4-0.7-0.8-1.2-1.1
		c-0.4-0.3-0.8-0.6-1.2-0.9c-0.4-0.2-0.9-0.4-1.3-0.7c-0.4-0.3-0.6-0.6-0.5-1"/>
	<path class="st1" d="M32.3,6.4c-0.4-0.4-0.9-1-0.9-1.6c0-0.7,0.5-1.3,1.1-1.6c0.3-0.2,0.6-0.4,1-0.6c0.2-0.1,0.5-0.1,0.7-0.2
		c0.6-0.2,1.3-0.2,2-0.2c0.6,0,1.1-0.2,1.7-0.3c0.4-0.1,0.7,0.1,1.1,0c0.3-0.1,0.5-0.2,0.8-0.1c0.7,0.3,1.5,1,1.5,1.8
		c0,0.7-0.5,1.1-1,1.6c-0.5,0.5-1,0.9-1.5,1.3c-0.3,0.3-0.5,0.6-0.9,0.7c-0.8,0.3-1.7,0.2-2.5,0.1c-0.6-0.1-1.2,0-1.7-0.2
		c-0.4-0.1-0.9-0.3-1.2-0.6c-0.1-0.2-0.2-0.3-0.3-0.5"/>
	<path class="st1" d="M35.1,15.1c0.1-0.3-0.1-0.5-0.1-0.8c0-0.3,0-0.7,0-0.9c0.1-0.5,0.4-0.9,0.6-1.4c0.2-0.5,0.4-1.1,0.5-1.6
		C36.3,9.9,36.7,9.4,37,9c0.4-0.4,0.9-0.9,1.5-1.1c0.5-0.2,0.9-0.3,1.4-0.5c0.5-0.2,1-0.4,1.5-0.2c0.4,0.1,0.8,0.7,0.9,1.1
		c0.2,0.6,0.3,1.2,0.2,1.8c0,0.4,0,0.9-0.1,1.3c-0.1,0.3-0.3,0.4-0.4,0.6c-0.4,0.7-0.4,1.5-0.6,2.1c-0.3,0.7-0.8,1.3-1.4,1.8
		c-0.4,0.4-0.8,0.7-1.4,0.9c-0.5,0.1-1,0.5-1.6,0.4C36.1,17.1,35.1,15.9,35.1,15.1c0-0.1,0-0.1,0-0.2"/>
	<path class="st1" d="M43.5,7.3c-0.4-0.4-0.7-0.8-0.9-1.3c-0.2-0.4-0.2-1.1-0.2-1.6c0.1-1,0.6-2.1,1.6-2.4c0.4-0.2,1.1-0.1,1.5,0.1
		c0.4,0.2,0.8,0.4,1.3,0.6c1.1,0.5,1.6,1.8,2.5,2.5c0.4,0.3,0.8,0.7,1.2,1.1c0.3,0.4,1,0.9,1.1,1.3c0.1,0.6-0.4,1.1-0.7,1.6
		c-0.4,0.6-1.1,1.3-1.8,1.3c-0.7,0.1-1.3-0.3-1.9-0.6c-0.6-0.3-1.3-0.5-1.8-1c-0.4-0.3-0.8-0.6-1.2-0.8c-0.3-0.3-0.7-0.6-1-0.9"/>
	<path class="st1" d="M34.9,22.4c-0.4-0.4,0.1-1.5,0.4-1.8c0.4-0.4,0.6-0.9,1-1.3c0.9-0.8,2-0.8,3.1-0.9c1-0.1,2.1-0.3,3,0.4
		c0.4,0.4,0.7,0.8,0.8,1.4c0.1,0.6,0.3,1.4-0.1,1.8c-0.7,0.9-1.5,1.7-2.6,2c-1,0.2-2.2,0.5-3.3,0.1c-0.6-0.2-1.1-0.6-1.6-1
		c-0.2-0.1-0.6-0.3-0.7-0.5c-0.2-0.2-0.1-0.5,0-0.7"/>
	<path class="st1" d="M43.1,17.1c-0.2-0.3-0.3-0.5-0.4-0.8c-0.1-0.3-0.2-0.5-0.3-0.8c-0.1-0.6,0-1.3,0.3-1.8
		c0.2-0.3,0.5-0.5,0.7-0.7c0.2-0.2,0.4-0.4,0.6-0.6c0.4-0.4,0.9-0.9,1.4-1c0.5-0.1,1-0.3,1.6-0.2c0.4,0.1,0.8,0.4,1.1,0.7
		c0.7,0.8,1.1,1.8,1.4,2.8c0.1,0.5,0.4,1,0.2,1.5c-0.1,0.5-0.1,1.1-0.5,1.5c-0.5,0.6-1.2,0.9-1.6,1.4c-0.3,0.4-0.6,0.9-0.7,1.4
		c-0.1,0.6-0.3,1.2-0.9,1.2c-0.5,0-0.9-0.1-1.2-0.6c-0.1-0.2-0.1-0.5-0.2-0.7c-0.1-0.3-0.2-0.5-0.3-0.7c-0.2-0.5-0.3-1-0.6-1.5
		c-0.2-0.3-0.3-0.6-0.5-0.9c-0.1-0.2-0.5-0.5-0.5-0.7"/>
	<path class="st1" d="M51.9,5.6c-0.5-0.6-1.2-1.1-1.6-1.8c-0.2-0.4-0.5-0.9-0.6-1.3c-0.2-1,1-2,1.9-2.3c0.9-0.4,2.1-0.3,3.1,0
		c0.5,0.1,0.9,0.4,1.4,0.4c0.3,0,0.5,0.1,0.7,0.2c0.3,0.1,0.5,0.2,0.7,0.4c0.3,0.3,0.7,0.7,0.9,1.2c0.2,0.5,0.2,1.3,0.1,1.9
		c-0.1,0.5-0.4,0.9-0.8,1.2c-0.4,0.4-1.1,0.7-1.6,0.9c-0.9,0.2-2,0-2.9-0.2c-0.3-0.1-0.8-0.2-1.1-0.3c-0.3-0.2-0.5-0.5-0.7-0.7"/>
	<path class="st1" d="M51,13.8c-0.1-0.2-0.2-0.4-0.3-0.7c0-0.3,0.1-0.6,0.2-0.9c0.2-0.7,0.5-1.3,1-1.8c0.9-1,2.1-1.8,3.1-2.8
		c0.4-0.4,1-0.8,1.5-0.9c0.5-0.2,1.2-0.2,1.7-0.1c1.1,0.1,2.1,0.1,3,1c0.4,0.4,0.7,0.7,0.8,1.3c0.1,0.5,0.1,1.3-0.1,1.8
		c-0.1,0.6-0.6,1-0.9,1.5c-0.4,0.6-0.7,1.2-1.2,1.8c-0.4,0.5-0.8,0.9-1.1,1.4c-0.3,0.4-0.7,0.8-1.2,0.9c-0.5,0.1-0.9,0.5-1.4,0.4
		c-0.5-0.1-1-0.4-1.4-0.6c-0.4-0.2-0.9-0.3-1.4-0.5c-0.4-0.1-0.7-0.3-1-0.6c-0.3-0.2-0.6-0.4-0.9-0.7c-0.3-0.3-0.6-0.5-0.4-1"/>
	<path class="st1" d="M60.7,5.4c-0.2-0.2-0.2-0.4-0.3-0.7c0-0.4-0.2-0.6-0.1-1c0.1-0.7,0.5-1.2,1-1.6c0.4-0.4,0.9-0.8,1.5-1
		c0.5-0.2,1-0.2,1.6-0.2c0.6-0.1,1.2,0,1.8,0.1c0.7,0.1,1,0.4,1.4,1c0.2,0.3,0.3,0.5,0.3,0.8C68,3,68.2,3.2,68.3,3.5
		c0.1,0.3,0.2,0.6,0.3,0.8c0.2,0.4,0.2,0.8,0.4,1.2c0.2,0.6-0.2,0.9-0.6,1.4c-0.5,0.4-0.8,0.8-1.4,1c-0.7,0.1-1.5,0.1-2.1,0
		c-0.6-0.2-1.3-0.3-1.9-0.6C62.1,6.6,61.3,6.1,60.7,5.4"/>
	<path class="st1" d="M40.3,28.4c-0.3-0.3-1-0.8-1.1-1.3c-0.1-0.6,0.4-1,0.8-1.3c0.2-0.2,0.5-0.4,0.7-0.6c0.2-0.1,0.5-0.2,0.7-0.3
		c0.7-0.3,1.4-0.3,2-0.8c0.9-0.8,2.2-0.9,3.2-0.3c0.5,0.3,0.9,0.9,1.2,1.3c0.4,0.6,0.5,1,0.3,1.6c-0.2,0.8-0.7,1.5-1.1,2.2
		c-0.3,0.4-0.6,1.1-1.1,1.3c-0.5,0.2-1,0.3-1.5,0c-0.4-0.2-0.8-0.5-1.3-0.6c-0.6-0.2-1.3-0.5-1.9-0.7C41,28.8,39.9,28.7,40,28"/>
	<path class="st1" d="M48,22.6c-0.4-1.2,0.6-2.4,1.5-3.1c0.5-0.4,0.8-0.6,1.4-0.8c0.7-0.2,1.3-0.2,2-0.3c0.6,0,1-0.1,1.5,0
		c0.5,0.1,1.1,0.7,1.4,1.1c0.3,0.5,0.7,1,0.7,1.6c0,0.6,0,1.1,0,1.7c0,0.3-0.1,0.5-0.1,0.8c0,0.2,0.1,0.6,0.1,0.9
		c0,0.3-0.2,0.5-0.4,0.7c-0.1,0.3-0.2,0.5-0.5,0.7c-0.5,0.4-0.9,0.9-1.6,0.8c-0.7-0.1-1.6-0.2-2.1-0.6c-0.6-0.4-1.2-0.7-1.7-1.2
		c-0.3-0.4-0.8-0.6-1.1-0.9c-0.6-0.4-1.4-1.2-1-2"/>
	<path class="st1" d="M58,21c0,0-0.3-0.5-0.3-0.7c-0.1-0.2-0.2-0.5-0.3-0.7c-0.1-0.5,0.1-1.2,0.3-1.6c0.3-0.4,0.8-0.8,1.2-1.1
		c0.4-0.3,0.9-0.6,1.3-0.7c0.5-0.1,1-0.2,1.5-0.2c0.5,0,0.8,0.2,1.2,0.5c0.9,0.7,1.5,1.7,1.9,2.7c0.1,0.3,0.2,0.5,0.1,0.8
		c-0.1,0.3,0,0.7-0.1,1.1c-0.2,0.6-0.8,1.1-1.2,1.6c-0.2,0.2-0.4,0.4-0.6,0.6c-0.2,0.2-0.3,0.4-0.5,0.6c-0.4,0.3-1.3,0.2-1.7,0
		c-0.3-0.1-0.6-0.5-0.9-0.7c-0.3-0.3-0.6-0.7-0.9-1c-0.3-0.3-1.4-1.2-1.1-1.7"/>
	<path class="st1" d="M63.6,14.4c-0.7-1-1.4-2.4-0.8-3.7c0.2-0.5,0.6-0.9,1-1.2C64,9.2,64.2,9.1,64.5,9c0.2-0.1,0.3-0.3,0.6-0.4
		c0.6-0.2,1,0,1.6,0.2C67,9,67.4,9.2,67.8,9.6c0.4,0.5,0.9,0.9,1.2,1.5c0.2,0.5,0.6,1,0.7,1.5c0.2,0.6,0,1.2-0.2,1.8
		c-0.1,0.3-0.2,0.6-0.2,0.9c0,0.3,0.1,0.7,0.1,1c0.1,1-0.2,2.2-1.3,2.7c-0.7,0.3-1-0.1-1.5-0.5c-0.5-0.4-1-0.9-1.4-1.4
		c-0.3-0.4-0.7-0.7-0.9-1.2c-0.2-0.5-0.4-1-0.6-1.4c-0.1-0.1-0.1-0.3-0.1-0.4"/>
	<path class="st1" d="M69.3,8.5c0-0.2,0-0.5,0-0.8c0-0.4,0.2-0.7,0.3-1.1c0.2-0.3,0.2-0.7,0.4-1.1c0.2-0.5,0.3-1,0.6-1.4
		c0.2-0.2,0.4-0.5,0.6-0.7c0.5-0.4,1.1-0.8,1.7-0.9c0.6-0.1,0.9,0.3,1.1,0.8c0.4,0.6,0.1,0.9-0.2,1.4c-0.1,0.3-0.3,0.5-0.4,0.8
		c-0.1,0.3-0.1,0.6-0.1,0.9c0,1.3-0.1,2.5-0.9,3.6c-0.6,0.7-1.8,1.4-2.6,0.6c-0.8-0.7-0.7-1.6-0.5-2.5"/>
	<path class="st1" d="M48.2,32.8c-0.4-0.4-0.8-1.4-0.6-2c0.2-0.6,0.9-1.1,1.4-1.6c0.4-0.4,0.9-0.9,1.4-1.1c0.4-0.2,1.1-0.2,1.6-0.1
		c1,0.2,1.8,1.3,2.4,2.2c0.3,0.5,0.5,1.1,0.6,1.7c0,0.4,0.2,0.7,0.2,1.1c0,0.3,0,0.7-0.1,1c0,0.3-0.1,0.6-0.1,0.9
		c0,0.2-0.1,0.4-0.3,0.6c-0.3,0.3-0.8,0.8-1.2,0.9c-0.6,0.1-1.2-0.3-1.7-0.6c-0.3-0.2-0.5-0.5-0.8-0.7c-0.3-0.2-0.5-0.4-0.8-0.6
		c-0.3-0.2-0.6-0.4-0.9-0.6c-0.2-0.2-0.4-0.4-0.6-0.5c-0.3-0.2-0.8-0.4-0.9-0.7"/>
	<path class="st1" d="M55.8,30.9c-0.1-0.6-0.4-1.2-0.2-1.9c0.2-0.6,0.5-1.3,1-1.7c0.9-0.8,1.9-2.2,3.2-2.2c0.6,0,1.2,0,1.8,0.2
		c0.4,0.2,0.8,0.5,1.2,0.8c0.4,0.4,0.8,0.9,1,1.4c0.2,0.5-0.3,1.3-0.6,1.9c-0.4,0.6-1.1,1.1-1.6,1.6c-0.5,0.4-0.8,0.9-1.4,1.3
		c-0.3,0.1-0.5,0.2-0.7,0.4c-0.3,0.1-0.4,0.3-0.7,0.2c-0.6,0-1.4-0.2-1.9-0.6c-0.3-0.3-0.6-0.6-0.8-0.9C56,31.4,55.9,31.1,55.8,30.9
		c0.1-0.1,0.1-0.3,0-0.5"/>
	<path class="st1" d="M64.8,25c-0.2-0.2,0-1,0-1.2c0-0.3,0.1-0.5,0.3-0.8c0.2-0.5,0.6-0.9,0.9-1.4c0.9-0.9,1.8-1.7,3-1.8
		c0.5-0.1,1.2-0.1,1.7,0c0.5,0.1,0.8,0.5,1.2,0.9c0.4,0.4,0.9,0.9,1,1.5c0.1,0.6,0,1.2-0.4,1.7c-0.5,0.6-1.2,1.1-1.8,1.6
		c-0.5,0.4-1.2,0.8-1.8,0.8c-0.7,0-1.3,0.2-2,0.3c-0.3,0-0.7,0.1-1-0.1c-0.2-0.1-0.4-0.4-0.6-0.5c-0.3-0.3-0.7-0.7-0.5-1.2"/>
	<path class="st1" d="M71.3,17.2c-0.3-0.5-0.7-1.1-0.5-1.8c0.1-0.6,0.4-1.4,0.8-1.9c0.3-0.5,0.8-0.9,1.2-1.2c0.5-0.3,1-0.7,1.7-0.8
		c1.2-0.2,2,0.8,2.5,1.8c0.7,1.5-0.4,3-0.4,4.5c0,0.8,0,1.6-0.6,2.1c-0.8,0.5-1.8,0.3-2.4-0.3c-0.5-0.4-1-0.9-1.5-1.4
		c-0.2-0.3-0.8-0.9-0.6-1.4"/>
	<path class="st1" d="M75.1,9.7C74.9,9.5,75,8.9,75,8.6c0-0.4,0.2-1,0.3-1.4c0.3-0.7,0.8-1.3,1.3-2c0.5-0.7,1.2-1.4,1.8-2
		C78.7,3,79,2.7,79.4,2.5c0.3-0.2,0.6-0.2,1-0.2c0.6-0.1,1.3-0.5,1.9-0.2c0.5,0.3,0.9,0.8,1.2,1.2c0.4,0.5,0.4,1.1,0.6,1.8
		C84,5.6,84,6.2,84.2,6.6c0.1,0.3,0.3,0.6,0.4,0.9c0.2,0.7,0.1,1.3-0.2,1.9c-0.2,0.6-0.9,1.1-1.4,1.6c-0.6,0.6-1.4,1.1-2.3,1.1
		c-0.7,0-1.6-0.2-2.3-0.3c-0.3,0-0.7,0-1,0c-0.7,0-1.1-0.6-1.6-1c-0.2-0.2-0.5-0.5-0.6-0.8c-0.1-0.3-0.1-0.5,0-0.8"/>
	<path class="st1" d="M90.8,13.4c-0.5-0.1-0.8-0.1-1.3-0.2c-0.4-0.1-0.8-0.3-1.2-0.4c-0.7-0.2-1.8-0.6-2.2-1.3
		c-0.6-1-0.7-2.7,0.4-3.4c0.4-0.3,1-0.6,1.5-0.3c0.3,0.2,0.4,0.6,0.8,0.7c0.3,0.1,0.6,0,0.8,0c1.3-0.4,2.6-1.1,4-1.3
		c1-0.2,2.1,0.2,2.6,1.1c0.5,0.7,0.7,1.7,0.6,2.5c-0.1,0.7-0.5,1.5-1,1.9c-0.5,0.4-1.1,0.6-1.7,0.8c-0.5,0.2-1.2,0.3-1.7,0.3
		c-0.3,0-0.7-0.3-1-0.4C91.2,13.3,90.8,13.5,90.8,13.4"/>
	<path class="st1" d="M78.6,17.4c0,0,0-0.4-0.1-0.6c0-0.2,0-0.4,0-0.6c0-0.4-0.1-0.8,0.1-1.2c0.4-0.6,1.1-1.2,1.7-1.6
		c1.1-0.9,2.5-1.1,3.9-0.9c0.6,0.1,1.1,0.6,1.4,1.1c0.5,0.6,0.9,1.2,1.3,1.8c0.5,0.7-0.6,1.6-1.1,2.1c-0.6,0.6-1.3,1.1-1.9,1.6
		c-0.3,0.2-0.5,0.5-0.8,0.7c-0.2,0.2-0.5,0.3-0.8,0.3c-0.7,0.1-1.4,0.1-2.1-0.2c-0.5-0.2-0.9-0.7-1.2-1.1c-0.1-0.2-0.2-0.4-0.3-0.6
		C78.7,17.9,78.6,17.7,78.6,17.4c0-0.2,0.1-0.6,0.4-0.8"/>
</g>
</svg>
