<svg width="20" height="18" viewBox="0 0 20 18" fill="none" xmlns="http://www.w3.org/2000/svg">
<path d="M11.5679 1.14116C9.41605 -0.168552 7.99118 1.18896 7.59377 1.73388C7.59377 1.73388 3.56152 6.51385 8.86354 7.57501C14.1656 8.63616 13.7197 2.45087 11.5679 1.14116Z" fill="#666596"/>
<path d="M3.79849 8.74154C1.42584 9.60376 1.62998 11.5473 1.81961 12.1919C1.81961 12.1919 3.14604 18.2708 7.26389 14.81C11.3817 11.3493 6.17115 7.87932 3.79849 8.74154Z" fill="#666596"/>
<path d="M13.3913 7.79867C11.0186 8.66089 11.2228 10.6044 11.4124 11.2491C11.4124 11.2491 12.7388 17.3279 16.8567 13.8672C20.9745 10.4064 15.7639 6.93645 13.3913 7.79867Z" fill="#666596"/>
</svg>
