<svg width="27" height="27" viewBox="0 0 27 27" fill="none" xmlns="http://www.w3.org/2000/svg">
<mask id="mask0_218_7920" style="mask-type:alpha" maskUnits="userSpaceOnUse" x="0" y="0" width="27" height="27">
<rect width="26.963" height="26.963" fill="#D9D9D9"/>
</mask>
<g mask="url(#mask0_218_7920)">
<path d="M9.07391 18.926C9.36197 18.926 9.60682 18.8251 9.80848 18.6235C10.0101 18.4219 10.1109 18.177 10.1109 17.8889C10.1109 17.6009 10.0101 17.356 9.80848 17.1543C9.60682 16.9527 9.36197 16.8519 9.07391 16.8519C8.78584 16.8519 8.54098 16.9527 8.33934 17.1543C8.13769 17.356 8.03687 17.6009 8.03687 17.8889C8.03687 18.177 8.13769 18.4219 8.33934 18.6235C8.54098 18.8251 8.78584 18.926 9.07391 18.926ZM9.07391 10.1111C9.36197 10.1111 9.60682 10.0103 9.80848 9.80867C10.0101 9.60701 10.1109 9.36215 10.1109 9.07409C10.1109 8.78602 10.0101 8.54116 9.80848 8.33952C9.60682 8.13788 9.36197 8.03706 9.07391 8.03706C8.78584 8.03706 8.54098 8.13788 8.33934 8.33952C8.13769 8.54116 8.03687 8.78602 8.03687 9.07409C8.03687 9.36215 8.13769 9.60701 8.33934 9.80867C8.54098 10.0103 8.78584 10.1111 9.07391 10.1111ZM13.4813 14.5185C13.7694 14.5185 14.0143 14.4177 14.2159 14.2161C14.4175 14.0144 14.5184 13.7696 14.5184 13.4815C14.5184 13.1934 14.4175 12.9486 14.2159 12.7469C14.0143 12.5453 13.7694 12.4445 13.4813 12.4445C13.1933 12.4445 12.9484 12.5453 12.7468 12.7469C12.5451 12.9486 12.4443 13.1934 12.4443 13.4815C12.4443 13.7696 12.5451 14.0144 12.7468 14.2161C12.9484 14.4177 13.1933 14.5185 13.4813 14.5185ZM17.8887 18.926C18.1768 18.926 18.4217 18.8251 18.6233 18.6235C18.825 18.4219 18.9258 18.177 18.9258 17.8889C18.9258 17.6009 18.825 17.356 18.6233 17.1543C18.4217 16.9527 18.1768 16.8519 17.8887 16.8519C17.6007 16.8519 17.3558 16.9527 17.1542 17.1543C16.9525 17.356 16.8517 17.6009 16.8517 17.8889C16.8517 18.177 16.9525 18.4219 17.1542 18.6235C17.3558 18.8251 17.6007 18.926 17.8887 18.926ZM17.8887 10.1111C18.1768 10.1111 18.4217 10.0103 18.6233 9.80867C18.825 9.60701 18.9258 9.36215 18.9258 9.07409C18.9258 8.78602 18.825 8.54116 18.6233 8.33952C18.4217 8.13788 18.1768 8.03706 17.8887 8.03706C17.6007 8.03706 17.3558 8.13788 17.1542 8.33952C16.9525 8.54116 16.8517 8.78602 16.8517 9.07409C16.8517 9.36215 16.9525 9.60701 17.1542 9.80867C17.3558 10.0103 17.6007 10.1111 17.8887 10.1111ZM6.30846 22.4692C5.79139 22.4692 5.35965 22.296 5.01325 21.9496C4.66685 21.6032 4.49365 21.1714 4.49365 20.6544V6.30864C4.49365 5.79157 4.66685 5.35984 5.01325 5.01344C5.35965 4.66704 5.79139 4.49384 6.30846 4.49384H20.6542C21.1713 4.49384 21.603 4.66704 21.9494 5.01344C22.2958 5.35984 22.469 5.79157 22.469 6.30864V20.6544C22.469 21.1714 22.2958 21.6032 21.9494 21.9496C21.603 22.296 21.1713 22.4692 20.6542 22.4692H6.30846ZM6.30846 21.3457H20.6542C20.827 21.3457 20.9855 21.2737 21.1295 21.1297C21.2735 20.9856 21.3455 20.8272 21.3455 20.6544V6.30864C21.3455 6.13582 21.2735 5.97738 21.1295 5.83334C20.9855 5.68931 20.827 5.61729 20.6542 5.61729H6.30846C6.13563 5.61729 5.9772 5.68931 5.83315 5.83334C5.68913 5.97738 5.61711 6.13582 5.61711 6.30864V20.6544C5.61711 20.8272 5.68913 20.9856 5.83315 21.1297C5.9772 21.2737 6.13563 21.3457 6.30846 21.3457Z" fill="#618CAC"/>
</g>
</svg>
