<svg width="21" height="16" viewBox="0 0 21 16" fill="none" xmlns="http://www.w3.org/2000/svg">
<path d="M0.94397 15.1859C0.853819 15.1155 0.853817 15.0218 0.883868 14.9983C0.913918 14.8811 0.974017 14.7405 1.12427 14.6702C1.21442 14.6468 1.24447 14.6233 1.30457 14.6233C1.54497 14.4827 1.63512 14.2248 1.96568 14.1076C2.11593 14.0373 2.08588 13.8733 2.23613 13.8029C2.53663 13.6154 2.74698 13.3107 3.04749 13.1232C3.13764 13.0529 3.28789 12.9357 3.40809 12.8419C3.46819 12.7482 3.55834 12.5841 3.7086 12.5138C3.85885 12.4903 3.949 12.42 4.09925 12.3497C4.2495 12.2325 4.39975 12.1153 4.55001 11.9981C4.85051 11.7637 5.09091 11.5293 5.48156 11.3653C5.63181 11.2949 5.72197 11.1309 5.84217 11.0371C6.11262 10.7324 6.56337 10.6152 6.86388 10.2871C6.95403 10.2167 7.07423 10.123 7.19443 10.0292C7.37473 9.93546 7.55503 9.79483 7.67523 9.60732C7.76538 9.537 7.82548 9.49012 7.94568 9.44324C8.03584 9.37292 8.15604 9.27917 8.27624 9.13853C8.36639 9.06822 8.5467 8.97446 8.69695 8.90414C8.93735 8.7635 9.0876 8.55255 9.3881 8.41191C9.59845 8.29472 9.68861 8.08376 9.89896 7.96657C10.1093 7.89625 10.2596 7.6853 10.3798 7.54466C10.6202 7.31027 10.9808 7.16964 11.1611 6.88837C11.2212 6.79461 11.4015 6.74773 11.5517 6.67741C11.7621 6.56021 11.8823 6.3727 12.1227 6.27894C12.1828 6.23207 12.1527 6.16175 12.2128 6.11487C12.6636 5.81016 13.1143 5.55233 13.4749 5.22418C13.535 5.13042 13.535 5.03667 13.6552 4.98979C13.7754 4.94291 13.8956 4.84915 14.0158 4.75539C14.1661 4.59132 14.3464 4.40381 14.5567 4.28661C14.8272 4.12254 14.9174 3.86471 15.1878 3.74751C15.3982 3.67719 15.6386 3.53656 15.7888 3.37248C15.879 3.25529 15.9992 3.16153 16.1194 3.06777C16.3297 2.99745 16.4499 2.85682 16.6002 2.73962C16.7204 2.59899 16.8406 2.41147 17.0209 2.31772C17.3514 2.15364 17.5918 1.91925 17.8623 1.7083C17.9224 1.66142 17.9224 1.61454 17.9524 1.5911C18.0726 1.54422 18.1928 1.49734 18.283 1.42703C18.4032 1.23951 18.7337 1.16919 18.884 1.00512C18.914 0.934801 18.9741 0.887924 19.0042 0.864485C19.2746 0.747289 19.3347 0.512895 19.5751 0.37226C19.6653 0.348821 19.7254 0.348821 19.8156 0.37226C19.9057 0.348821 19.9658 0.301941 20.0259 0.301941C20.1762 0.372259 20.3264 0.489455 20.2964 0.65353C20.2663 0.864483 20.086 1.00512 19.8456 1.052C19.8156 1.07544 19.7855 1.09888 19.7555 1.12231C19.5451 1.28639 19.4249 1.52078 19.2145 1.68485C19.1544 1.73173 19.0643 1.66142 19.0042 1.7083C18.5835 2.03644 18.0726 2.34115 17.7421 2.73962C17.6219 2.83338 17.5918 2.9037 17.4115 2.95057C17.3815 2.97401 17.4115 2.99745 17.3815 3.02089C17.2613 3.11465 17.1411 3.25529 16.9307 3.3256C16.8406 3.39592 16.7805 3.4428 16.6903 3.51312C16.5401 3.63031 16.3297 3.79439 16.1795 3.91158C15.7888 4.21629 15.3681 4.49756 15.0376 4.84915C15.0075 4.87259 14.9474 4.87259 14.9174 4.89603C14.8272 4.96635 14.7671 5.01323 14.677 5.08355C14.3464 5.34138 14.076 5.55233 13.7454 5.81016C13.5951 5.88048 13.505 6.04455 13.3547 6.11487C13.2646 6.13831 13.2045 6.18519 13.1744 6.20863C13.1444 6.32582 12.9641 6.41958 12.8439 6.51334C12.7537 6.53678 12.6936 6.58365 12.6335 6.63053C12.4833 6.84149 12.2729 6.95868 12.0626 7.12276C12.0325 7.1462 11.9424 7.16964 11.9424 7.16964C11.8222 7.35715 11.5517 7.52123 11.3714 7.66186C11.2813 7.6853 11.2512 7.70874 11.2212 7.73218C11.1611 7.82593 11.101 7.87281 11.0108 7.94313C10.8005 8.01345 10.5901 8.13064 10.4699 8.27128C10.4399 8.3416 10.4098 8.36504 10.4098 8.41192C10.3497 8.50567 10.1995 8.52911 10.0492 8.59943C9.8689 8.69318 9.7487 8.8807 9.6285 9.02134C9.4482 9.20885 9.2078 9.30261 8.99744 9.46668C8.75704 9.6542 8.48659 9.81827 8.36639 10.0527C8.00579 10.2402 7.73534 10.498 7.40478 10.709C7.10428 10.8965 6.86387 11.1309 6.59342 11.3418C6.32297 11.5059 6.05252 11.67 5.84216 11.8809C5.84216 11.9278 5.72197 11.9747 5.69192 11.9512C5.21111 12.2794 4.85051 12.7013 4.33965 13.006C4.2495 13.0763 4.21945 13.0998 4.15935 13.1935C4.09925 13.2404 4.03915 13.2873 3.949 13.3107C3.5884 13.5451 3.37804 13.8029 3.04749 14.0608C2.92728 14.1545 2.77704 14.2717 2.59674 14.3655C2.56669 14.3889 2.59673 14.4124 2.56668 14.4358C2.47653 14.553 2.29623 14.553 2.23613 14.6936C2.23613 14.6936 2.17603 14.6936 2.14598 14.7171C1.60508 14.9983 1.39472 15.3968 0.94397 15.1859Z" fill="#224554"/>
<path d="M19.983 15.2502C19.8929 15.3205 19.7727 15.3205 19.7426 15.2971C19.5924 15.2736 19.4121 15.2267 19.3219 15.1095C19.2919 15.0392 19.2618 15.0158 19.2618 14.9689C19.0815 14.7814 18.751 14.7111 18.6007 14.4533C18.5106 14.3361 18.3002 14.3595 18.2101 14.2423C17.9697 14.0079 17.579 13.8438 17.3386 13.6094C17.2485 13.5391 17.0982 13.4219 16.978 13.3282C16.8578 13.2813 16.6474 13.211 16.5573 13.0938C16.5272 12.9766 16.4371 12.9063 16.3469 12.7891C16.1967 12.6719 16.0464 12.5547 15.8962 12.4375C15.5957 12.2031 15.2952 12.0156 15.0848 11.7109C14.9947 11.5937 14.7843 11.5233 14.6641 11.4296C14.2735 11.2186 14.1232 10.867 13.7025 10.6327C13.6124 10.5623 13.4922 10.4686 13.372 10.3748C13.2518 10.2342 13.0715 10.0936 12.8311 9.9998C12.7409 9.92948 12.6808 9.8826 12.6207 9.78885C12.5306 9.71853 12.4104 9.62477 12.2301 9.53101C12.1399 9.4607 12.0197 9.32006 11.9296 9.20286C11.7493 9.01535 11.4788 8.89815 11.2985 8.66376C11.1482 8.49969 10.8778 8.42937 10.7275 8.26529C10.6374 8.10122 10.3669 7.98402 10.1866 7.89027C9.88613 7.70275 9.70583 7.42148 9.34523 7.28085C9.22503 7.23397 9.16492 7.09333 9.07477 6.97614C8.92452 6.81206 8.68412 6.71831 8.56392 6.53079C8.50382 6.48392 8.41367 6.50735 8.35357 6.46048C7.96291 6.10889 7.63236 5.7573 7.21166 5.47603C7.09146 5.42915 6.97125 5.42915 6.91115 5.33539C6.85105 5.24164 6.73085 5.14788 6.61065 5.05412C6.4003 4.93692 6.1599 4.79629 6.00964 4.63222C5.79929 4.42126 5.46874 4.35094 5.31849 4.13999C5.22834 3.97592 5.04804 3.7884 4.83768 3.67121C4.68743 3.60089 4.56723 3.50713 4.44703 3.41338C4.35688 3.2493 4.17658 3.15554 4.02633 3.03835C3.84603 2.94459 3.60562 2.85083 3.48542 2.7102C3.27507 2.45237 2.97456 2.26485 2.70411 2.0539C2.64401 2.00702 2.58391 2.00702 2.55386 1.98358C2.49376 1.88982 2.43366 1.79607 2.34351 1.72575C2.10311 1.63199 2.01296 1.37416 1.8026 1.25697C1.71245 1.23353 1.65235 1.18665 1.6223 1.16321C1.47205 0.952257 1.17155 0.90538 0.991246 0.717866C0.961196 0.647548 0.961196 0.600665 0.991246 0.530348C0.961196 0.46003 0.901094 0.413152 0.901094 0.366274C0.991245 0.249078 1.1415 0.131883 1.35185 0.155322C1.6223 0.178761 1.80261 0.319397 1.86271 0.506911C1.89276 0.53035 1.9228 0.553786 1.95285 0.577225C2.16321 0.7413 2.46371 0.835061 2.67406 0.999136C2.73416 1.04601 2.64401 1.11633 2.70411 1.16321C3.12482 1.49136 3.51547 1.88982 4.02632 2.14766C4.14652 2.24141 4.23668 2.26485 4.29678 2.40549C4.32683 2.42893 4.35688 2.40549 4.38693 2.42893C4.50713 2.52268 4.68743 2.61644 4.77758 2.78051C4.86774 2.85083 4.92784 2.89771 5.01799 2.96803C5.16824 3.08523 5.37859 3.2493 5.52884 3.3665C5.9195 3.67121 6.2801 3.99936 6.73085 4.25719C6.7609 4.28063 6.7609 4.3275 6.79095 4.35094C6.8811 4.42126 6.94121 4.46814 7.03136 4.53846C7.36191 4.79629 7.63236 5.00724 7.96291 5.26507C8.05306 5.38227 8.26342 5.45259 8.35357 5.56978C8.38362 5.6401 8.44372 5.68698 8.47377 5.71042C8.62402 5.73386 8.74422 5.87449 8.86442 5.96825C8.89447 6.03857 8.95457 6.08545 9.01467 6.13233C9.28513 6.24952 9.43538 6.41359 9.64573 6.57767C9.67578 6.60111 9.70583 6.67143 9.70583 6.67143C9.94623 6.76518 10.1566 6.97614 10.3369 7.11677C10.3669 7.18709 10.397 7.21053 10.427 7.23397C10.5472 7.28085 10.6073 7.32772 10.6975 7.39804C10.7876 7.56212 10.9379 7.7262 11.1182 7.81995C11.2083 7.84339 11.2384 7.86683 11.2985 7.86683C11.4187 7.9137 11.4487 8.0309 11.5389 8.1481C11.6591 8.28874 11.8995 8.38249 12.0798 8.47625C12.3202 8.61688 12.4404 8.8044 12.6508 8.96847C12.8912 9.15599 13.1015 9.36694 13.402 9.46069C13.6424 9.74197 13.973 9.95292 14.2434 10.2107C14.4838 10.4451 14.7843 10.6327 15.0548 10.8436C15.2651 11.0546 15.4755 11.2655 15.7459 11.4296C15.806 11.4296 15.8661 11.5233 15.8361 11.5468C16.2568 11.9218 16.7977 12.2031 17.1884 12.6015C17.2785 12.6719 17.3086 12.6953 17.4288 12.7422C17.4889 12.7891 17.549 12.8359 17.579 12.9063C17.8795 13.1875 18.2101 13.3516 18.5406 13.6094C18.6608 13.7032 18.8111 13.8204 18.9313 13.961C18.9613 13.9845 18.9914 13.961 19.0214 13.9845C19.1717 14.0548 19.1717 14.1954 19.352 14.2423C19.352 14.2423 19.352 14.2892 19.382 14.3126C19.7426 14.7345 20.2535 14.8986 19.983 15.2502Z" fill="#224554"/>
</svg>