<svg width="16" height="17" viewBox="0 0 16 17" fill="none" xmlns="http://www.w3.org/2000/svg">
<mask id="mask0_218_7943" style="mask-type:alpha" maskUnits="userSpaceOnUse" x="0" y="0" width="16" height="17">
<rect width="16" height="16.4526" fill="#D9D9D9"/>
</mask>
<g mask="url(#mask0_218_7943)">
<path d="M4.20513 13.3678C3.86838 13.3678 3.58333 13.2478 3.35 13.0079C3.11667 12.7679 3 12.4748 3 12.1285V10.2829H3.99998V12.1285C3.99998 12.1813 4.02135 12.2296 4.06408 12.2736C4.10683 12.3175 4.15384 12.3395 4.20513 12.3395H11.7948C11.8461 12.3395 11.8931 12.3175 11.9359 12.2736C11.9786 12.2296 12 12.1813 12 12.1285V10.2829H13V12.1285C13 12.4748 12.8833 12.7679 12.65 13.0079C12.4166 13.2478 12.1316 13.3678 11.7948 13.3678H4.20513ZM7.99998 10.7047L5.15387 7.77811L5.85642 7.03461L7.5 8.72469V2.96625H8.49997V8.72469L10.1436 7.03461L10.8461 7.77811L7.99998 10.7047Z" fill="#618CAC"/>
</g>
</svg>
