<svg width="27" height="27" viewBox="0 0 27 27" fill="none" xmlns="http://www.w3.org/2000/svg">
<mask id="mask0_218_7917" style="mask-type:alpha" maskUnits="userSpaceOnUse" x="0" y="0" width="27" height="27">
<rect width="26.963" height="26.963" fill="#D9D9D9"/>
</mask>
<g mask="url(#mask0_218_7917)">
<path d="M21.795 10.5324L21.0215 9.75895L21.5617 9.19076C21.7057 9.04671 21.7777 8.88468 21.7777 8.70464C21.7777 8.52461 21.7057 8.36257 21.5617 8.21852L18.7444 5.40122C18.6003 5.25719 18.4383 5.18518 18.2582 5.18518C18.0782 5.18518 17.9162 5.25719 17.7721 5.40122L17.2039 5.94135L16.4024 5.13982L17.0289 4.48518C17.3587 4.15535 17.7628 3.99512 18.241 4.00448C18.7191 4.01384 19.1232 4.18344 19.453 4.51327L22.4496 7.50987C22.7794 7.83972 22.9443 8.23905 22.9443 8.70787C22.9443 9.17671 22.7794 9.57604 22.4496 9.90587L21.795 10.5324ZM9.93382 22.4217C9.604 22.7515 9.20466 22.9164 8.73582 22.9164C8.267 22.9164 7.86767 22.7515 7.53782 22.4217L4.62764 19.5115C4.2834 19.1672 4.11127 18.7391 4.11127 18.227C4.11127 17.715 4.2834 17.2869 4.62764 16.9426L5.16778 16.4025L5.96931 17.2041L5.42272 17.7442C5.27867 17.8882 5.20665 18.0502 5.20665 18.2303C5.20665 18.4103 5.27867 18.5724 5.42272 18.7164L8.24647 21.5402C8.39052 21.6842 8.55256 21.7562 8.73259 21.7562C8.91263 21.7562 9.07467 21.6842 9.21872 21.5402L9.75882 20.9936L10.5604 21.7951L9.93382 22.4217ZM20.8681 14.7778L22.145 13.5009C22.289 13.3569 22.361 13.1913 22.361 13.004C22.361 12.8168 22.289 12.6512 22.145 12.5071L14.4557 4.81789C14.3117 4.67387 14.1461 4.60185 13.9588 4.60185C13.7716 4.60185 13.606 4.67387 13.4619 4.81789L12.1851 6.09476C12.041 6.23879 11.969 6.40083 11.969 6.58088C11.969 6.76092 12.041 6.92295 12.1851 7.06697L19.8959 14.7778C20.0399 14.9218 20.202 14.9938 20.382 14.9938C20.562 14.9938 20.7241 14.9218 20.8681 14.7778ZM13.5008 22.1451L14.7777 20.8618C14.9217 20.7177 14.9937 20.5557 14.9937 20.3757C14.9937 20.1956 14.9217 20.0336 14.7777 19.8895L7.07333 12.1852C6.9293 12.0412 6.76726 11.9692 6.58721 11.9692C6.40717 11.9692 6.24514 12.0412 6.10112 12.1852L4.81776 13.4621C4.67373 13.6061 4.60172 13.7717 4.60172 13.959C4.60172 14.1462 4.67373 14.3119 4.81776 14.4559L12.507 22.1451C12.651 22.2891 12.8167 22.3612 13.0039 22.3612C13.1911 22.3612 13.3568 22.2891 13.5008 22.1451ZM12.7058 16.221L16.2274 12.7059L14.257 10.7355L10.7419 14.2571L12.7058 16.221ZM14.2808 22.9402C13.9365 23.2844 13.5109 23.4565 13.0039 23.4565C12.4969 23.4565 12.0713 23.2844 11.727 22.9402L4.02272 15.2358C3.67847 14.8916 3.50635 14.466 3.50635 13.959C3.50635 13.452 3.67847 13.0264 4.02272 12.6821L5.29956 11.3837C5.6438 11.0394 6.07194 10.8673 6.58398 10.8673C7.09601 10.8673 7.52416 11.0394 7.8684 11.3837L9.94031 13.4556L13.4619 9.93396L11.39 7.86853C11.0458 7.52429 10.8737 7.09507 10.8737 6.58088C10.8737 6.06668 11.0458 5.63745 11.39 5.2932L12.6885 3.99476C13.0327 3.65052 13.4608 3.47839 13.9729 3.47839C14.4849 3.47839 14.9131 3.65052 15.2573 3.99476L22.9681 11.7056C23.3124 12.0498 23.4845 12.478 23.4845 12.99C23.4845 13.502 23.3124 13.9302 22.9681 14.2744L21.6697 15.5729C21.3254 15.9171 20.8962 16.0892 20.382 16.0892C19.8678 16.0892 19.4386 15.9171 19.0943 15.5729L17.0289 13.501L13.5073 17.0226L15.5792 19.0945C15.9235 19.4387 16.0956 19.8669 16.0956 20.3789C16.0956 20.8909 15.9235 21.3191 15.5792 21.6633L14.2808 22.9402Z" fill="#618CAC"/>
</g>
</svg>
