<svg width="27" height="27" viewBox="0 0 27 27" fill="none" xmlns="http://www.w3.org/2000/svg">
<mask id="mask0_218_7908" style="mask-type:alpha" maskUnits="userSpaceOnUse" x="0" y="0" width="27" height="27">
<rect width="26.963" height="26.963" fill="#D9D9D9"/>
</mask>
<g mask="url(#mask0_218_7908)">
<path d="M2.9165 20.9136V19.0642C2.9165 18.5428 3.05153 18.0945 3.3216 17.7193C3.59166 17.3441 3.95458 17.0443 4.41037 16.8198C5.38484 16.3558 6.35242 15.9859 7.3131 15.7101C8.27381 15.4342 9.42968 15.2963 10.7807 15.2963C12.1318 15.2963 13.2876 15.4342 14.2483 15.7101C15.209 15.9859 16.1766 16.3558 17.1511 16.8198C17.6069 17.0443 17.9698 17.3441 18.2398 17.7193C18.5099 18.0945 18.6449 18.5428 18.6449 19.0642V20.9136H2.9165ZM20.8918 20.9136V19.0124C20.8918 18.3614 20.7601 17.7468 20.4966 17.1688C20.233 16.5907 19.8592 16.0948 19.3752 15.6809C19.9268 15.7932 20.4583 15.9491 20.9696 16.1486C21.4809 16.3481 21.9865 16.5725 22.4863 16.8216C22.9732 17.0665 23.3548 17.3798 23.6314 17.7617C23.9079 18.1435 24.0462 18.5604 24.0462 19.0124V20.9136H20.8918ZM10.7807 12.7902C9.85386 12.7902 9.06042 12.4601 8.40039 11.8001C7.74036 11.1401 7.41034 10.3466 7.41034 9.41978C7.41034 8.49291 7.74036 7.69946 8.40039 7.03943C9.06042 6.37939 9.85386 6.04938 10.7807 6.04938C11.7076 6.04938 12.501 6.37939 13.161 7.03943C13.8211 7.69946 14.1511 8.49291 14.1511 9.41978C14.1511 10.3466 13.8211 11.1401 13.161 11.8001C12.501 12.4601 11.7076 12.7902 10.7807 12.7902ZM18.9474 9.41978C18.9474 10.3466 18.6174 11.1401 17.9574 11.8001C17.2973 12.4601 16.5039 12.7902 15.577 12.7902C15.5295 12.7902 15.469 12.7848 15.3955 12.774C15.3221 12.7631 15.2616 12.7513 15.2141 12.7383C15.5946 12.2722 15.8871 11.7551 16.0914 11.187C16.2958 10.6189 16.398 10.0289 16.398 9.41709C16.398 8.80529 16.2911 8.22069 16.0772 7.66328C15.8633 7.10588 15.5756 6.58519 15.2141 6.10123C15.2746 6.07964 15.3351 6.06559 15.3955 6.0591C15.456 6.05262 15.5165 6.04938 15.577 6.04938C16.5039 6.04938 17.2973 6.37939 17.9574 7.03943C18.6174 7.69946 18.9474 8.49291 18.9474 9.41978ZM4.03996 19.7902H17.5215V19.0642C17.5215 18.8006 17.4556 18.5702 17.3238 18.3729C17.192 18.1755 16.9554 17.9869 16.6141 17.8068C15.7758 17.3589 14.8921 17.0157 13.9631 16.7773C13.0341 16.539 11.9733 16.4198 10.7807 16.4198C9.58813 16.4198 8.52732 16.539 7.59829 16.7773C6.66929 17.0157 5.78565 17.3589 4.94738 17.8068C4.60602 17.9869 4.36944 18.1755 4.23764 18.3729C4.10585 18.5702 4.03996 18.8006 4.03996 19.0642V19.7902ZM10.7807 11.6667C11.3986 11.6667 11.9276 11.4467 12.3676 11.0067C12.8076 10.5666 13.0276 10.0377 13.0276 9.41978C13.0276 8.80188 12.8076 8.27292 12.3676 7.8329C11.9276 7.39288 11.3986 7.17286 10.7807 7.17286C10.1628 7.17286 9.63385 7.39288 9.19383 7.8329C8.75381 8.27292 8.5338 8.80188 8.5338 9.41978C8.5338 10.0377 8.75381 10.5666 9.19383 11.0067C9.63385 11.4467 10.1628 11.6667 10.7807 11.6667Z" fill="#618CAC"/>
</g>
</svg>
