<svg width="13" height="13" viewBox="0 0 13 13" fill="none" xmlns="http://www.w3.org/2000/svg">
<path d="M1.63766 12.0532C1.29138 12.0532 0.998273 11.9332 0.758339 11.6933C0.518405 11.4534 0.398438 11.1603 0.398438 10.814V1.63852C0.398438 1.29224 0.518405 0.999128 0.758339 0.759193C0.998273 0.519259 1.29138 0.399292 1.63766 0.399292H5.96171V1.42756H1.63766C1.58492 1.42756 1.53658 1.44954 1.49262 1.49348C1.44868 1.53743 1.42671 1.58578 1.42671 1.63852V10.814C1.42671 10.8667 1.44868 10.9151 1.49262 10.959C1.53658 11.003 1.58492 11.0249 1.63766 11.0249H10.8131C10.8659 11.0249 10.9142 11.003 10.9582 10.959C11.0021 10.9151 11.0241 10.8667 11.0241 10.814V6.48994H12.0524V10.814C12.0524 11.1603 11.9324 11.4534 11.6925 11.6933C11.4525 11.9332 11.1594 12.0532 10.8131 12.0532H1.63766ZM4.66187 8.51221L3.93944 7.78978L10.3017 1.42756H7.59645V0.399292H12.0524V4.8552H11.0241V2.14999L4.66187 8.51221Z" fill="#618CAC"/>
</svg>
