<svg width="50" height="39" viewBox="0 0 50 39" fill="none" xmlns="http://www.w3.org/2000/svg">
<path d="M36.62 26.86L34.64 29.72C33.76 32.14 30.9 34.34 31.34 36.54C31.78 38.96 37.72 38.3 37.94 37.42C38.16 38.08 38.6 38.08 38.6 37.86C40.8 35 43.22 33.02 44.32 29.94C44.32 30.16 44.54 29.94 44.76 29.94C47.18 24.22 49.6 16.3 47.18 11.24C46.96 7.50001 45.42 4.64001 42.56 3.76001C42.78 0.900005 38.16 0.240014 35.52 0.240014C33.98 0.0200036 32.44 0.680008 31.34 0.460011C30.9 0.900006 30.68 0.900006 30.24 0.900006C29.8 3.76001 27.6 5.96001 26.72 9.48001C26.06 12.12 25.4 16.52 26.06 18.72C26.5 20.7 28.7 21.14 30.68 21.36L31.34 21.36C31.56 21.36 31.34 20.92 31.56 21.14C32.22 21.14 32.22 21.36 32.44 21.58C32.88 21.58 33.76 21.14 33.76 21.58C35.3 20.7 37.5 20.04 38.16 18.5C38.16 17.18 39.04 15.86 39.26 14.76C39.26 18.94 37.94 23.56 36.62 26.86ZM11.1 25.76C10.66 26.64 9.78 27.3 9.78 27.96C8.9 30.16 6.26 32.58 6.48 34.56C6.92 36.98 12.42 35.88 12.42 35.22C12.86 35.66 13.52 35.66 13.52 35.44C15.06 33.02 17.26 31.48 18.36 28.4C18.36 28.62 19.02 28.4 19.24 28.4C21 22.9 23.42 15.86 21 11.24C20.78 7.50001 19.9 5.3 16.82 3.98001C16.82 1.78001 12.86 1.12 10.22 0.900007C9.12 0.68001 7.58 1.56001 6.48 1.34002C6.26 1.78001 6.04 1.78001 5.16 1.78001C4.72 3.98001 3.18 6.40002 1.86 9.48002C1.64 12.12 0.980002 16.08 1.64 18.06C1.86 20.04 4.06 20.26 5.6 20.48L6.48 20.48C6.7 20.48 6.48 20.26 6.7 20.26C6.92 20.26 7.36 20.48 7.58 20.7C7.8 20.92 8.68 20.26 8.9 20.7C9.78 20.04 12.2 19.6 12.64 17.62C12.86 16.3 13.96 15.42 14.18 14.32C14.18 18.06 12.42 22.46 11.1 25.76Z" fill="#EACAA1"/>
</svg>
