<svg width="50" height="39" viewBox="0 0 50 39" fill="none" xmlns="http://www.w3.org/2000/svg">
<path d="M13.38 12.14L15.36 9.27999C16.24 6.85999 19.1 4.65999 18.66 2.46C18.22 0.039988 12.28 0.699993 12.06 1.57999C11.84 0.91999 11.4 0.91999 11.4 1.13999C9.2 3.99999 6.78 5.97999 5.68 9.05999C5.68 8.83999 5.46 9.05999 5.24 9.05999C2.82 14.78 0.4 22.7 2.82 27.76C3.04 31.5 4.58 34.36 7.44 35.24C7.22 38.1 11.84 38.76 14.48 38.76C16.02 38.98 17.56 38.32 18.66 38.54C19.1 38.1 19.32 38.1 19.76 38.1C20.2 35.24 22.4 33.04 23.28 29.52C23.94 26.88 24.6 22.48 23.94 20.28C23.5 18.3 21.3 17.86 19.32 17.64H18.66C18.44 17.64 18.66 18.08 18.44 17.86C17.78 17.86 17.78 17.64 17.56 17.42C17.12 17.42 16.24 17.86 16.24 17.42C14.7 18.3 12.5 18.96 11.84 20.5C11.84 21.82 10.96 23.14 10.74 24.24C10.74 20.06 12.06 15.44 13.38 12.14ZM38.9 13.24C39.34 12.36 40.22 11.7 40.22 11.04C41.1 8.83999 43.74 6.42 43.52 4.44C43.08 2.01999 37.58 3.11999 37.58 3.77999C37.14 3.34 36.48 3.34 36.48 3.56C34.94 5.97999 32.74 7.52 31.64 10.6C31.64 10.38 30.98 10.6 30.76 10.6C29 16.1 26.58 23.14 29 27.76C29.22 31.5 30.1 33.7 33.18 35.02C33.18 37.22 37.14 37.88 39.78 38.1C40.88 38.32 42.42 37.44 43.52 37.66C43.74 37.22 43.96 37.22 44.84 37.22C45.28 35.02 46.82 32.6 48.14 29.52C48.36 26.88 49.02 22.92 48.36 20.94C48.14 18.96 45.94 18.74 44.4 18.52H43.52C43.3 18.52 43.52 18.74 43.3 18.74C43.08 18.74 42.64 18.52 42.42 18.3C42.2 18.08 41.32 18.74 41.1 18.3C40.22 18.96 37.8 19.4 37.36 21.38C37.14 22.7 36.04 23.58 35.82 24.68C35.82 20.94 37.58 16.54 38.9 13.24Z" fill="#EACAA1"/>
</svg>
