<svg width="124" height="2" viewBox="0 0 124 2" fill="none" xmlns="http://www.w3.org/2000/svg">
<path d="M0 0.826664C0 0.606663 0.566197 0.459995 0.849303 0.459995C1.69862 0.313327 2.83103 0.166657 3.96346 0.239991C4.52967 0.313325 4.8128 0.313322 5.0959 0.386656C7.07764 0.45999 9.05937 0.166655 11.3242 0.386656C12.4566 0.45999 13.3059 0.166657 14.4383 0.239991C16.9863 0.313325 19.8173 0.0933185 22.3653 0.166652C23.2146 0.166652 24.6301 0.166652 25.7625 0.166652C26.6119 0.0933185 28.0274 -0.0533471 29.1598 0.0199868C30.0092 0.166655 30.8585 0.166657 31.9909 0.239991C33.4064 0.239991 34.8219 0.239991 36.2375 0.239991C39.0685 0.239991 41.6165 0.166655 44.4475 0.386656C45.5799 0.45999 46.9955 0.313329 48.1279 0.313329C51.242 0.166661 54.0731 0.533324 57.4704 0.386656C58.3197 0.386656 59.4521 0.386656 60.5845 0.386656C62 0.45999 63.6986 0.459997 65.3973 0.313329C66.2466 0.313329 66.8128 0.313322 67.6621 0.386656C68.5114 0.386656 69.6438 0.386663 71.0594 0.313329C71.9087 0.313329 73.3242 0.386661 74.4567 0.459995C76.4384 0.533329 78.4201 0.386654 80.685 0.533322C82.3836 0.606656 84.0822 0.386661 85.7809 0.459995C87.1964 0.606663 89.1781 0.45999 90.5937 0.386656C93.1416 0.313322 95.6895 0.533331 98.2375 0.313329C99.0868 0.239995 100.219 0.386661 101.352 0.459995C103.05 0.533329 104.749 0.386654 106.448 0.533322C107.014 0.533322 107.297 0.386656 107.863 0.386656C111.827 0.45999 59.5069 0.606656 63.1873 0.533322C64.0366 0.459988 64.6028 0.313322 65.4521 0.386656C66.3014 0.45999 67.4339 0.459995 68.5663 0.459995C70.2649 0.386661 72.2466 0.313322 73.9453 0.386656C76.2101 0.45999 78.1918 0.166661 80.1736 0.313329C81.5891 0.459997 83.5708 0.533329 85.2695 0.459995C86.4019 0.386661 87.5343 0.386656 88.6667 0.386656C90.0822 0.533324 91.4978 0.459995 92.9133 0.459995C94.3288 0.386661 96.0275 0.239995 97.443 0.313329C99.9909 0.459997 102.539 0.386656 105.087 0.386656C105.653 0.386656 105.936 0.313329 106.219 0.313329C107.069 0.386663 107.918 0.459995 108.767 0.459995C110.466 0.313327 112.448 0.606656 114.146 0.533322C114.712 0.459988 115.279 0.459995 115.562 0.459995C117.543 0.606663 119.242 0.313322 121.224 0.386656C121.79 0.45999 122.073 0.533331 122.356 0.679999C122.922 0.753333 123.489 0.75333 123.772 0.826664C124.055 1.12 124.055 1.48667 122.922 1.70667C121.507 2 119.808 2.00001 118.393 1.78001C118.11 1.78001 117.827 1.78001 117.543 1.78001C115.562 1.78001 113.58 2 111.598 2C111.032 2 111.032 1.78001 110.466 1.78001C106.502 1.78001 102.256 1.63333 98.2923 1.85333C97.1599 1.85333 96.5937 1.92668 95.4613 1.78001C95.1782 1.78001 95.1782 1.85333 94.8951 1.85333C93.7626 1.85333 92.3471 1.92668 90.9316 1.78001C90.0823 1.78001 89.516 1.78001 88.6667 1.78001C87.2512 1.78001 85.2695 1.78001 83.8539 1.78001C80.1736 1.78001 76.4932 1.70667 72.8129 1.85333C72.5297 1.85333 72.2466 1.78001 71.9635 1.78001C71.1142 1.78001 70.548 1.78001 69.6987 1.78001C66.5845 1.78001 64.0366 1.78001 60.9224 1.78001C59.79 1.70667 114.374 1.85334 113.242 1.78001C112.676 1.70667 112.11 1.70667 111.827 1.70667C110.977 1.85334 109.562 1.78001 108.429 1.78001C107.863 1.70667 107.297 1.70667 106.731 1.70667C104.749 1.85334 103.05 1.78001 101.069 1.78001C100.785 1.78001 100.219 1.70667 100.219 1.70667C98.5206 1.85334 96.2557 1.78001 94.5571 1.78001C93.9909 1.70667 93.7078 1.70667 93.4247 1.70667C92.5754 1.78 92.0092 1.78001 91.1599 1.78001C89.7443 1.63334 88.0457 1.56 86.6302 1.63333C86.0639 1.70666 85.7809 1.70667 85.4978 1.78001C84.6484 1.85334 83.7991 1.70666 82.6667 1.63333C81.2512 1.56 79.5525 1.70667 78.137 1.78001C76.1553 1.85334 74.4566 1.70667 72.4749 1.70667C70.2101 1.70667 67.9453 1.63333 65.9635 1.85333C63.1325 1.70667 60.3014 1.78 57.4704 1.70667C54.9224 1.63333 52.3744 1.70667 49.8265 1.70667C47.5616 1.63333 45.2968 1.56 43.032 1.63333C42.7489 1.70666 41.8996 1.63334 41.8996 1.56C37.653 1.48667 33.4064 1.70667 29.1598 1.56C28.3105 1.56 28.0274 1.56 27.1781 1.63333C26.6119 1.63333 26.0457 1.63334 25.4795 1.56C22.3653 1.48667 19.8173 1.63333 16.7032 1.63333C15.5708 1.63333 14.1553 1.63334 12.7397 1.56C12.4566 1.56 12.4566 1.63333 12.1735 1.63333C11.0411 1.70666 10.1918 1.48666 9.05936 1.63333C9.05936 1.63333 8.77626 1.56 8.49316 1.56C4.24658 1.34 0.849316 1.70667 0 0.826664Z" fill="#224554"/>
</svg>
