<svg width="29" height="24" viewBox="0 0 29 24" fill="none" xmlns="http://www.w3.org/2000/svg">
<path d="M17.1571 0.792829C13.9656 -1.08563 11.8523 0.861387 11.2629 1.64294C11.2629 1.64294 5.28244 8.49863 13.1462 10.0206C21.0099 11.5426 20.3486 2.67129 17.1571 0.792829Z" fill="white"/>
<path d="M5.63377 11.693C2.11474 12.9297 2.41752 15.7172 2.69877 16.6418C2.69877 16.6418 4.66608 25.3604 10.7735 20.3968C16.8809 15.4332 9.1528 10.4564 5.63377 11.693Z" fill="white"/>
<path d="M19.8603 10.341C16.3413 11.5776 16.6441 14.3651 16.9253 15.2897C16.9253 15.2897 18.8926 24.0084 25.0001 19.0448C31.1075 14.0812 23.3794 9.10435 19.8603 10.341Z" fill="white"/>
</svg>
