<svg width="27" height="27" viewBox="0 0 27 27" fill="none" xmlns="http://www.w3.org/2000/svg">
<mask id="mask0_218_7914" style="mask-type:alpha" maskUnits="userSpaceOnUse" x="0" y="0" width="27" height="27">
<rect width="26.963" height="26.963" fill="#D9D9D9"/>
</mask>
<g mask="url(#mask0_218_7914)">
<path d="M2.80859 21.2204V20.1531C3.29398 20.0955 3.7142 19.9825 4.06926 19.8139C4.42429 19.6454 4.7804 19.4737 5.13761 19.2986C5.49481 19.1236 5.88695 18.9674 6.31401 18.8298C6.74106 18.6923 7.25777 18.6235 7.86416 18.6235C8.48927 18.6235 9.02399 18.7031 9.46832 18.8622C9.91267 19.0214 10.3422 19.1993 10.7571 19.3959C11.1719 19.5925 11.5903 19.775 12.0123 19.9436C12.4343 20.1121 12.9241 20.1963 13.4815 20.1963C14.0389 20.1963 14.5286 20.1121 14.9506 19.9436C15.3726 19.775 15.791 19.5925 16.2058 19.3959C16.6207 19.1993 17.0549 19.0214 17.5086 18.8622C17.9623 18.7031 18.4924 18.6235 19.0988 18.6235C19.7239 18.6235 20.2453 18.6923 20.6629 18.8298C21.0806 18.9674 21.4681 19.1236 21.8253 19.2986C22.1825 19.4737 22.5397 19.6454 22.8969 19.8139C23.2541 19.9825 23.6733 20.0955 24.1543 20.1531V21.2204C23.63 21.1772 23.1724 21.0713 22.7813 20.9028C22.3903 20.7343 22.009 20.5625 21.6373 20.3875C21.2657 20.2126 20.8855 20.0527 20.4966 19.9079C20.1077 19.7632 19.6418 19.6908 19.0988 19.6908C18.5745 19.6908 18.1024 19.7704 17.6825 19.9295C17.2627 20.0887 16.8464 20.2666 16.4338 20.4632C16.0211 20.6598 15.5833 20.8423 15.1202 21.0108C14.6571 21.1794 14.1109 21.2636 13.4815 21.2636C12.852 21.2636 12.3058 21.1794 11.8427 21.0108C11.3797 20.8423 10.9418 20.6598 10.5291 20.4632C10.1165 20.2666 9.7049 20.0887 9.29441 19.9295C8.88391 19.7704 8.40717 19.6908 7.86416 19.6908C7.33988 19.6908 6.87861 19.7632 6.48037 19.9079C6.08212 20.0527 5.69719 20.2126 5.32556 20.3875C4.95396 20.5625 4.57264 20.7343 4.1816 20.9028C3.79054 21.0713 3.33287 21.1772 2.80859 21.2204ZM2.80859 16.9124V15.8451C3.29398 15.7875 3.7142 15.6744 4.06926 15.5059C4.42429 15.3374 4.7804 15.1656 5.13761 14.9906C5.49481 14.8156 5.88695 14.6593 6.31401 14.5218C6.74106 14.3842 7.25777 14.3154 7.86416 14.3154C8.48927 14.3154 9.02399 14.395 9.46832 14.5542C9.91267 14.7133 10.3422 14.8912 10.7571 15.0878C11.1719 15.2844 11.5903 15.467 12.0123 15.6355C12.4343 15.804 12.9241 15.8883 13.4815 15.8883C14.0389 15.8883 14.5286 15.804 14.9506 15.6355C15.3726 15.467 15.791 15.2844 16.2058 15.0878C16.6207 14.8912 17.0549 14.7133 17.5086 14.5542C17.9623 14.395 18.4924 14.3154 19.0988 14.3154C19.7239 14.3154 20.2453 14.3842 20.6629 14.5218C21.0806 14.6593 21.4681 14.8156 21.8253 14.9906C22.1825 15.1656 22.5397 15.3374 22.8969 15.5059C23.2541 15.6744 23.6733 15.7875 24.1543 15.8451V16.9124C23.63 16.8692 23.1724 16.7633 22.7813 16.5948C22.3903 16.4263 22.009 16.2545 21.6373 16.0795C21.2657 15.9045 20.8855 15.7446 20.4966 15.5999C20.1077 15.4551 19.6418 15.3828 19.0988 15.3828C18.5701 15.3828 18.0959 15.4623 17.6761 15.6215C17.2562 15.7807 16.84 15.9585 16.4273 16.1551C16.0146 16.3517 15.5779 16.5343 15.117 16.7028C14.656 16.8713 14.1109 16.9556 13.4815 16.9556C12.852 16.9556 12.3058 16.8713 11.8427 16.7028C11.3797 16.5343 10.9418 16.3517 10.5291 16.1551C10.1165 15.9585 9.7049 15.7807 9.29441 15.6215C8.88391 15.4623 8.40717 15.3828 7.86416 15.3828C7.33988 15.3828 6.87861 15.4551 6.48037 15.5999C6.08212 15.7446 5.69719 15.9045 5.32556 16.0795C4.95396 16.2545 4.57264 16.4263 4.1816 16.5948C3.79054 16.7633 3.33287 16.8692 2.80859 16.9124ZM2.80859 12.6043V11.537C3.29398 11.4794 3.7142 11.3664 4.06926 11.1978C4.42429 11.0293 4.7804 10.8576 5.13761 10.6826C5.49481 10.5076 5.88695 10.3513 6.31401 10.2138C6.74106 10.0762 7.25777 10.0074 7.86416 10.0074C8.48927 10.0074 9.02399 10.087 9.46832 10.2461C9.91267 10.4053 10.3422 10.5832 10.7571 10.7798C11.1719 10.9764 11.5903 11.1589 12.0123 11.3275C12.4343 11.496 12.9241 11.5802 13.4815 11.5802C14.0389 11.5802 14.5286 11.496 14.9506 11.3275C15.3726 11.1589 15.791 10.9764 16.2058 10.7798C16.6207 10.5832 17.0549 10.4053 17.5086 10.2461C17.9623 10.087 18.4924 10.0074 19.0988 10.0074C19.7239 10.0074 20.2453 10.0762 20.6629 10.2138C21.0806 10.3513 21.4681 10.5076 21.8253 10.6826C22.1825 10.8576 22.5397 11.0293 22.8969 11.1978C23.2541 11.3664 23.6733 11.4794 24.1543 11.537V12.6043C23.63 12.5611 23.1724 12.4553 22.7813 12.2868C22.3903 12.1182 22.009 11.9465 21.6373 11.7715C21.2657 11.5965 20.8855 11.4366 20.4966 11.2919C20.1077 11.1471 19.6418 11.0747 19.0988 11.0747C18.5745 11.0747 18.1024 11.1543 17.6825 11.3135C17.2627 11.4726 16.8464 11.6505 16.4338 11.8471C16.0211 12.0437 15.5833 12.2263 15.1202 12.3948C14.6571 12.5633 14.1109 12.6476 13.4815 12.6476C12.852 12.6476 12.3058 12.5633 11.8427 12.3948C11.3797 12.2263 10.9418 12.0437 10.5291 11.8471C10.1165 11.6505 9.7049 11.4726 9.29441 11.3135C8.88391 11.1543 8.40717 11.0747 7.86416 11.0747C7.33988 11.0747 6.87861 11.1471 6.48037 11.2919C6.08212 11.4366 5.69719 11.5965 5.32556 11.7715C4.95396 11.9465 4.57264 12.1182 4.1816 12.2868C3.79054 12.4553 3.33287 12.5611 2.80859 12.6043ZM2.80859 8.29632V7.229C3.29398 7.17139 3.7142 7.05832 4.06926 6.8898C4.42429 6.72129 4.7804 6.54953 5.13761 6.37453C5.49481 6.19953 5.88695 6.04326 6.31401 5.90571C6.74106 5.76816 7.25777 5.69939 7.86416 5.69939C8.48927 5.69939 9.02399 5.77896 9.46832 5.93812C9.91267 6.09728 10.3422 6.27516 10.7571 6.47176C11.1719 6.66837 11.5903 6.85093 12.0123 7.01945C12.4343 7.18797 12.9241 7.27223 13.4815 7.27223C14.0389 7.27223 14.5286 7.18797 14.9506 7.01945C15.3726 6.85093 15.791 6.66837 16.2058 6.47176C16.6207 6.27516 17.0549 6.09728 17.5086 5.93812C17.9623 5.77896 18.4924 5.69939 19.0988 5.69939C19.7239 5.69939 20.2453 5.76816 20.6629 5.90571C21.0806 6.04326 21.4681 6.19953 21.8253 6.37453C22.1825 6.54953 22.5397 6.72129 22.8969 6.8898C23.2541 7.05832 23.6733 7.17139 24.1543 7.229V8.29632C23.63 8.2531 23.1724 8.14724 22.7813 7.97872C22.3903 7.8102 22.009 7.63844 21.6373 7.46344C21.2657 7.28844 20.8855 7.12857 20.4966 6.98381C20.1077 6.83905 19.6418 6.76667 19.0988 6.76667C18.5745 6.76667 18.1024 6.84625 17.6825 7.00541C17.2627 7.16456 16.8464 7.34245 16.4338 7.53905C16.0211 7.73566 15.5833 7.91822 15.1202 8.08674C14.6571 8.25526 14.1109 8.33952 13.4815 8.33952C12.852 8.33952 12.3058 8.25526 11.8427 8.08674C11.3797 7.91822 10.9418 7.73566 10.5291 7.53905C10.1165 7.34245 9.7049 7.16456 9.29441 7.00541C8.88391 6.84625 8.40717 6.76667 7.86416 6.76667C7.33988 6.76667 6.87861 6.83905 6.48037 6.98381C6.08212 7.12857 5.69719 7.28844 5.32556 7.46344C4.95396 7.63844 4.57264 7.8102 4.1816 7.97872C3.79054 8.14724 3.33287 8.2531 2.80859 8.29632Z" fill="#618CAC"/>
</g>
</svg>
